<svg width="20" height="14" viewBox="0 0 20 14" fill="none" xmlns="http://www.w3.org/2000/svg">
<path d="M5.72077 0.281205C5.89223 0.0987269 6.12187 -0.00224516 6.36023 3.72727e-05C6.59859 0.00231971 6.82661 0.107674 6.99516 0.293408C7.16372 0.479142 7.25933 0.730395 7.2614 0.993053C7.26347 1.25571 7.17184 1.50876 7.00624 1.69769L3.10347 5.99824L19.0909 5.99824C19.332 5.99824 19.5632 6.10378 19.7337 6.29165C19.9042 6.47952 20 6.73432 20 7C20 7.26568 19.9042 7.52048 19.7337 7.70835C19.5632 7.89622 19.332 8.00176 19.0909 8.00176L3.10347 8.00176L7.00624 12.3023C7.17184 12.4912 7.26347 12.7443 7.2614 13.0069C7.25933 13.2696 7.16372 13.5209 6.99516 13.7066C6.82661 13.8923 6.59859 13.9977 6.36023 14C6.12187 14.0022 5.89223 13.9013 5.72077 13.7188L0.26617 7.70824C0.0957409 7.52038 -3.17591e-07 7.26563 -3.0598e-07 7C-2.94369e-07 6.73437 0.095741 6.47961 0.26617 6.29176L5.72077 0.281205Z" fill="white"/>
</svg>
