<svg width="20" height="14" viewBox="0 0 20 14" fill="none" xmlns="http://www.w3.org/2000/svg">
<path d="M14.2792 13.7188C14.1078 13.9013 13.8781 14.0022 13.6398 14C13.4014 13.9977 13.1734 13.8923 13.0048 13.7066C12.8363 13.5209 12.7407 13.2696 12.7386 13.0069C12.7365 12.7443 12.8282 12.4912 12.9938 12.3023L16.8965 8.00176L0.909099 8.00176C0.667991 8.00176 0.436758 7.89622 0.266269 7.70835C0.0957796 7.52048 -2.94366e-07 7.26568 -3.0598e-07 7C-3.17593e-07 6.73432 0.0957795 6.47952 0.266269 6.29165C0.436758 6.10378 0.667991 5.99824 0.909099 5.99824L16.8965 5.99824L12.9938 1.69769C12.8282 1.50876 12.7365 1.25571 12.7386 0.993055C12.7407 0.730397 12.8363 0.479143 13.0048 0.293409C13.1734 0.107675 13.4014 0.0023197 13.6398 3.75508e-05C13.8781 -0.0022446 14.1078 0.0987266 14.2792 0.281206L19.7338 6.29176C19.9043 6.47961 20 6.73437 20 7C20 7.26563 19.9043 7.52039 19.7338 7.70824L14.2792 13.7188Z" fill="white"/>
</svg>
