<svg width="27" height="27" viewBox="0 0 27 27" fill="none" xmlns="http://www.w3.org/2000/svg">
<g clip-path="url(#clip0)">
<path d="M13.5 27C13.3739 27 13.247 26.972 13.1308 26.9143C7.79302 24.3155 3.37482 21.5106 3.37482 13.4998V4.21843C3.37482 3.86329 3.59645 3.54686 3.93018 3.42576L13.2116 0.0506689C13.3978 -0.0168896 13.6021 -0.0168896 13.7883 0.0506689L23.0697 3.42571C23.4035 3.54681 23.6251 3.86324 23.6251 4.21838V13.4998C23.6251 21.5106 19.2069 24.3154 13.8691 26.9143C13.7529 26.972 13.626 27 13.5 27ZM5.06236 4.80921V13.4998C5.06236 19.7943 7.90344 22.4384 13.5 25.2153C19.0965 22.4384 21.9376 19.7943 21.9376 13.4998V4.80921L13.5 1.74149L5.06236 4.80921Z" fill="white"/>
<path d="M12.9034 16.8748L8.93182 12.9032L10.125 11.71L12.9034 14.4885L18.2132 9.17871L19.4063 10.3718L12.9034 16.8748Z" fill="white"/>
</g>
<defs>
<clipPath id="clip0">
<rect width="27" height="27" fill="white"/>
</clipPath>
</defs>
</svg>
