<svg width="25" height="25" viewBox="0 0 25 25" fill="none" xmlns="http://www.w3.org/2000/svg">
<path d="M19.9405 0.758972H6.75408C5.21338 0.75967 3.96443 2.00845 3.9639 3.54915V4.75451H2.65252C2.3442 4.75451 2.09448 5.0044 2.09448 5.31254C2.09448 5.62068 2.3442 5.87058 2.65252 5.87058H3.95815V9.53129H2.65252C2.3442 9.53129 2.09448 9.78101 2.09448 10.0893C2.09448 10.3975 2.3442 10.6474 2.65252 10.6474H3.95815V14.3081H2.65252C2.3442 14.3081 2.09448 14.558 2.09448 14.8661C2.09448 15.1744 2.3442 15.4242 2.65252 15.4242H3.95815V19.0849H2.65252C2.3442 19.0849 2.09448 19.3348 2.09448 19.6429C2.09448 19.951 2.3442 20.2009 2.65252 20.2009H3.95815V21.4063C3.95884 22.947 5.20762 24.1958 6.74833 24.1965H19.9347C21.4754 24.1958 22.7245 22.947 22.7249 21.4063V3.54915C22.7272 2.0095 21.4801 0.760018 19.9405 0.758972ZM21.6146 21.4063C21.6118 22.3297 20.8638 23.0778 19.9405 23.0804H6.75408C5.83071 23.0778 5.08259 22.3297 5.07997 21.4063V20.2009H6.3856C6.69392 20.2009 6.94364 19.951 6.94364 19.6429C6.94364 19.3348 6.69392 19.0849 6.3856 19.0849H5.07997V15.4242H6.3856C6.69392 15.4242 6.94364 15.1744 6.94364 14.8661C6.94364 14.558 6.69392 14.3081 6.3856 14.3081H5.07997V10.6474H6.3856C6.69392 10.6474 6.94364 10.3975 6.94364 10.0893C6.94364 9.78101 6.69392 9.53129 6.3856 9.53129H5.07997V5.87058H6.3856C6.69392 5.87058 6.94364 5.62068 6.94364 5.31254C6.94364 5.0044 6.69392 4.75451 6.3856 4.75451H5.07997V3.54915C5.08259 2.62578 5.83071 1.87766 6.75408 1.87504H19.9405C20.8638 1.87766 21.6118 2.62578 21.6146 3.54915V21.4063Z" fill="white"/>
<path d="M13.3445 12.3158C14.8392 12.3158 16.051 11.1042 16.051 9.60936C16.051 8.11453 14.8392 6.90289 13.3445 6.90289C11.8497 6.90289 10.6381 8.11453 10.6381 9.60936C10.6395 11.1035 11.8502 12.3144 13.3445 12.3158ZM13.3445 8.01338C14.2227 8.01338 14.9349 8.72558 14.9349 9.60378C14.9349 10.482 14.2227 11.1942 13.3445 11.1942C12.4662 11.1942 11.7541 10.482 11.7541 9.60378C11.7557 8.72627 12.4667 8.01495 13.3445 8.01338Z" fill="white"/>
<path d="M13.3445 13.2143C11.0231 13.2143 9.20374 15.0949 9.20374 17.5C9.20461 17.8078 9.45398 18.0572 9.76177 18.058H16.9271C17.2349 18.0572 17.4843 17.8078 17.4852 17.5C17.4852 15.0949 15.6658 13.2143 13.3445 13.2143ZM10.3644 16.942C10.6046 15.4185 11.8044 14.3304 13.3445 14.3304C14.8845 14.3304 16.0901 15.4185 16.3244 16.942H10.3644Z" fill="white"/>
</svg>
