<svg width="31" height="31" viewBox="0 0 31 31" fill="none" xmlns="http://www.w3.org/2000/svg">
<g clip-path="url(#clip0)">
<path d="M30.875 12.3805L25.3653 2.99191C25.1127 2.56148 24.5601 2.4155 24.128 2.66507L20.8259 4.57151L17.8515 3.47749C16.9213 3.13534 15.8954 3.22332 15.037 3.71895L10.5204 6.32665L6.51624 4.01478C6.30336 3.89187 6.04985 3.86057 5.81336 3.92784C5.57698 3.99517 5.37796 4.15537 5.26177 4.37207L0.107963 13.9809C-0.123811 14.4132 0.0294334 14.9515 0.45423 15.1967L2.49932 16.3775L1.47372 18.1539C0.722513 19.455 1.16989 21.1245 2.47099 21.8758C3.07488 22.2244 3.75803 22.3145 4.39202 22.1812C4.59358 22.7969 5.01317 23.3435 5.61706 23.6922C6.22096 24.0408 6.90411 24.1309 7.53809 23.9976C7.73965 24.6133 8.15924 25.1599 8.76314 25.5086C9.36703 25.8572 10.0502 25.9473 10.6842 25.814C10.8858 26.4297 11.3054 26.9763 11.9093 27.325C13.2104 28.0762 14.8799 27.6288 15.6312 26.3277L15.7485 26.1244L19.1567 28.0922C20.4578 28.8434 22.1274 28.396 22.8786 27.095C23.0559 26.7879 23.1656 26.4602 23.2139 26.129C24.3728 26.4342 25.6407 25.9437 26.268 24.8571C26.4841 24.4829 26.6004 24.0782 26.6264 23.6737C27.6178 23.7257 28.6036 23.2335 29.1331 22.3164C29.6626 21.3993 29.5959 20.2995 29.0552 19.4669C29.3925 19.2421 29.6848 18.939 29.9008 18.5648C30.6313 17.2997 30.2282 15.6864 29.0092 14.9075L30.6688 13.5413C31.0136 13.2576 31.101 12.7654 30.875 12.3805ZM15.9452 5.29202C16.3354 5.06667 16.8015 5.02677 17.2246 5.18231L20.5981 6.42316C20.8512 6.51622 21.1323 6.49206 21.3657 6.35728L24.2552 4.68903L28.9162 12.6315L27.3321 13.9356L16.4237 7.63755C16.1427 7.47528 15.7964 7.47528 15.5154 7.63755L10.4948 10.5362C10.077 10.789 9.48958 10.6316 9.25423 10.2038C9.00145 9.78605 9.15887 9.19845 9.58664 8.96316L15.9452 5.29202ZM3.37925 20.3027C2.94555 20.0523 2.79643 19.4958 3.04685 19.0621L4.56052 16.4403C4.81094 16.0066 5.36743 15.8575 5.80113 16.1079C6.23482 16.3584 6.38395 16.9148 6.13353 17.3485L4.61986 19.9703C4.36949 20.404 3.81295 20.5531 3.37925 20.3027ZM6.52533 22.1191C6.09163 21.8687 5.9425 21.3122 6.19292 20.8785L8.31206 17.208C8.56249 16.7743 9.11897 16.6252 9.55267 16.8756C9.98637 17.126 10.1355 17.6825 9.88507 18.1162L7.76593 21.7867C7.51557 22.2204 6.95902 22.3695 6.52533 22.1191ZM9.6714 23.9355C9.2377 23.6851 9.08858 23.1286 9.339 22.6949L10.8527 20.0732C11.1031 19.6395 11.6596 19.4903 12.0933 19.7407C12.527 19.9912 12.6761 20.5477 12.4257 20.9814L10.912 23.6031C10.6616 24.0368 10.1052 24.1859 9.6714 23.9355ZM12.8175 25.752C12.3838 25.5015 12.2347 24.945 12.4851 24.5113L13.3933 22.9382C13.6437 22.5045 14.2002 22.3554 14.6339 22.6058C15.0676 22.8562 15.2168 23.4127 14.9663 23.8464L14.0581 25.4195C13.8078 25.8533 13.2513 26.0024 12.8175 25.752ZM27.5602 21.4082C27.3098 21.8419 26.7533 21.991 26.3196 21.7406L21.6005 19.016C21.1661 18.7652 20.6106 18.914 20.3599 19.3484C20.1091 19.7828 20.2579 20.3382 20.6923 20.589L24.3627 22.7082C24.7964 22.9586 24.9455 23.5151 24.6951 23.9488C24.4447 24.3825 23.8882 24.5316 23.4545 24.2812L19.7841 22.162C19.3497 21.9112 18.7942 22.0601 18.5435 22.4944C18.2927 22.9288 18.4415 23.4842 18.8759 23.735L20.9733 24.946C21.407 25.1964 21.5561 25.7529 21.3057 26.1866C21.0552 26.6203 20.4988 26.7694 20.0651 26.519L16.6475 24.5458C17.2404 23.2798 16.7748 21.7442 15.5422 21.0326C15.168 20.8166 14.7633 20.7002 14.3588 20.6742C14.4108 19.6828 13.9186 18.697 13.0015 18.1674C12.6274 17.9514 12.2227 17.835 11.8182 17.8091C11.8702 16.8177 11.378 15.8318 10.4609 15.3024C9.54377 14.7729 8.444 14.8395 7.61142 15.3803C7.38667 15.0429 7.08351 14.7507 6.70933 14.5346C5.66211 13.93 4.37658 14.1024 3.52293 14.8708L2.12478 14.0638L6.41955 6.05643L8.70398 7.37538L8.67843 7.39015C8.0482 7.75404 7.59737 8.34159 7.40895 9.04453C7.22065 9.74748 7.31728 10.4817 7.68117 11.112C8.04505 11.7422 8.6326 12.193 9.33555 12.3815C10.0385 12.5697 10.7727 12.4731 11.403 12.1092L15.9695 9.47278L27.9954 16.4161C28.4291 16.6665 28.5783 17.223 28.3278 17.6567C28.0774 18.0904 27.5209 18.2395 27.0872 17.9891L23.4168 15.8699C22.9825 15.6191 22.427 15.768 22.1762 16.2023C21.9254 16.6367 22.0742 17.1921 22.5086 17.4429L27.2278 20.1675C27.6615 20.418 27.8106 20.9745 27.5602 21.4082Z" fill="#3DBA20"/>
</g>
<defs>
<clipPath id="clip0">
<rect width="31" height="31" fill="white"/>
</clipPath>
</defs>
</svg>
