<svg width="23" height="23" viewBox="0 0 23 23" fill="none" xmlns="http://www.w3.org/2000/svg">
<g clip-path="url(#clip0)">
<path d="M22.6631 22.3262H21.5596V17.6952C21.7801 17.5014 21.9197 17.2175 21.9197 16.9015C21.9197 16.3186 21.4455 15.8444 20.8626 15.8444H18.6584L18.3181 10.3987C18.307 10.2211 18.1597 10.0828 17.9818 10.0828H16.5414C16.3635 10.0828 16.2163 10.2211 16.2052 10.3987L15.8648 15.8444H15.0574L14.717 10.3987C14.7059 10.2211 14.5587 10.0828 14.3808 10.0828H12.9404C12.7625 10.0828 12.6153 10.2211 12.6042 10.3987L12.2638 15.8444H11.4564L11.1161 10.3987C11.105 10.2211 10.9577 10.0828 10.7798 10.0828H9.33944C9.16155 10.0828 9.01429 10.2211 9.0032 10.3987L8.66282 15.8444H7.72441L7.5157 6.45112C7.51166 6.26802 7.36202 6.1217 7.17887 6.1217H5.01827C4.83512 6.1217 4.68549 6.26802 4.68144 6.45112L4.44071 17.2848H1.77729C1.19438 17.2848 0.720187 17.759 0.720187 18.3419C0.720187 18.6579 0.85976 18.9418 1.08028 19.1357V22.3262H0.336914C0.150848 22.3262 0 22.477 0 22.6631C0 22.8491 0.150848 23 0.336914 23H22.6631C22.8492 23 23 22.8491 23 22.6631C23 22.477 22.8492 22.3262 22.6631 22.3262ZM4.40859 18.7252H3.21784C3.03178 18.7252 2.88093 18.8761 2.88093 19.0621C2.88093 19.2482 3.03178 19.399 3.21784 19.399H4.39363L4.32858 22.3262H1.75411V19.3984C1.76184 19.3986 1.76952 19.399 1.77729 19.399C1.96336 19.399 2.1142 19.2482 2.1142 19.0621C2.1142 18.876 1.96336 18.7252 1.77729 18.7252C1.56593 18.7252 1.39402 18.5532 1.39402 18.3419C1.39402 18.1305 1.56598 17.9586 1.77729 17.9586H4.42561L4.40859 18.7252ZM16.8579 10.7566H17.6653L17.9833 15.8444H16.5399L16.8579 10.7566ZM13.2569 10.7566H14.0643L14.3823 15.8444H12.9389L13.2569 10.7566ZM9.65591 10.7566H10.4633L10.7812 15.8444H9.33791L9.65591 10.7566ZM5.76163 22.3262H5.00263L5.34768 6.79549H6.84928L7.0504 15.8444H6.45864C5.87574 15.8444 5.4015 16.3186 5.4015 16.9015C5.4015 17.2175 5.54107 17.5014 5.76163 17.6952V22.3262ZM20.8626 17.2847H20.1424C19.9564 17.2847 19.8055 17.4356 19.8055 17.6217C19.8055 17.8077 19.9564 17.9586 20.1424 17.9586H20.8626C20.8704 17.9586 20.8781 17.9581 20.8858 17.958V22.3262H6.43542V17.958C6.44314 17.9582 6.45083 17.9586 6.4586 17.9586H18.7023C18.8883 17.9586 19.0392 17.8077 19.0392 17.6217C19.0392 17.4356 18.8883 17.2847 18.7023 17.2847H6.4586C6.24724 17.2847 6.07528 17.1128 6.07528 16.9015C6.07528 16.6902 6.24724 16.5182 6.4586 16.5182H20.8626C21.0739 16.5182 21.2459 16.6901 21.2459 16.9015C21.2459 17.1128 21.0739 17.2847 20.8626 17.2847Z" fill="white"/>
<path d="M18.702 0C17.6871 0 16.7195 0.354209 15.946 1.00329C15.3906 0.58659 14.7176 0.360094 14.0207 0.360094C13.1748 0.360094 12.3672 0.694088 11.7669 1.28459C11.4557 1.1504 11.1191 1.08028 10.7799 1.08028C9.77818 1.08028 8.88527 1.68003 8.49337 2.57762C8.35816 2.53975 8.21971 2.52066 8.0791 2.52066C7.38313 2.52066 6.78463 2.97324 6.57085 3.60723C6.53361 3.60309 6.49615 3.60098 6.45864 3.60098C5.87573 3.60098 5.40149 4.07522 5.40149 4.65808C5.40153 4.8442 5.55238 4.99504 5.73845 4.99504C5.92451 4.99504 6.07536 4.8442 6.07536 4.65813C6.07536 4.44677 6.24732 4.27486 6.45868 4.27486C6.52552 4.27486 6.59107 4.29377 6.65342 4.3311C6.7544 4.39152 6.87955 4.39484 6.98364 4.33999C7.08768 4.2851 7.1556 4.17989 7.1627 4.06242C7.19221 3.57578 7.59475 3.19457 8.07906 3.19457C8.2322 3.19457 8.38336 3.23595 8.52828 3.31757C8.61906 3.36874 8.72854 3.37494 8.82463 3.33437C8.92071 3.29381 8.99254 3.21106 9.01927 3.11026C9.23081 2.31181 9.95477 1.75415 10.7798 1.75415C11.0925 1.75415 11.4022 1.83591 11.6755 1.99053C11.8152 2.0696 11.9914 2.03909 12.0964 1.91754C12.5814 1.35601 13.2828 1.03397 14.0207 1.03397C14.6516 1.03397 15.2582 1.26949 15.7288 1.6971C15.8601 1.81642 16.0614 1.8135 16.1892 1.69037C16.8693 1.03482 17.7617 0.673828 18.702 0.673828C20.7004 0.673828 22.3262 2.29964 22.3262 4.29799C22.3262 6.29634 20.7004 7.92215 18.702 7.92215C17.3753 7.92215 16.1556 7.19774 15.519 6.03162C15.4341 5.8761 15.2432 5.81294 15.0823 5.88706C14.7444 6.04271 14.3873 6.12164 14.0207 6.12164C13.2828 6.12164 12.5814 5.79959 12.0964 5.23807C11.9915 5.11656 11.8153 5.08601 11.6755 5.16507C11.4022 5.31969 11.0925 5.40145 10.7799 5.40145C10.2105 5.40145 9.68367 5.14077 9.33449 4.68625C9.27106 4.60373 9.17308 4.55512 9.069 4.55458C9.06842 4.55458 9.06788 4.55458 9.06734 4.55458C8.96388 4.55458 8.86609 4.60216 8.80221 4.6836C8.62396 4.91095 8.3604 5.04131 8.0791 5.04131C7.89304 5.04131 7.74219 5.19216 7.74219 5.37823C7.74219 5.56429 7.89304 5.71514 8.0791 5.71514C8.43619 5.71514 8.7758 5.59583 9.05252 5.37939C9.51481 5.82538 10.1267 6.07523 10.7799 6.07523C11.1191 6.07523 11.4557 6.00511 11.7669 5.87097C12.3672 6.46147 13.1748 6.79547 14.0207 6.79547C14.3838 6.79547 14.7394 6.73451 15.0812 6.61398C15.8684 7.84372 17.2296 8.59598 18.702 8.59598C21.072 8.59598 23 6.66789 23 4.29799C23 1.92809 21.072 0 18.702 0Z" fill="white"/>
<path d="M8.61914 18.7252C8.43307 18.7252 8.28223 18.8761 8.28223 19.0621V19.7823C8.28223 19.9684 8.43307 20.1192 8.61914 20.1192C8.80521 20.1192 8.95605 19.9684 8.95605 19.7823V19.0621C8.95605 18.8761 8.80521 18.7252 8.61914 18.7252Z" fill="white"/>
<path d="M10.0597 18.7252C9.87363 18.7252 9.72278 18.8761 9.72278 19.0621V19.7823C9.72278 19.9684 9.87363 20.1192 10.0597 20.1192C10.2458 20.1192 10.3966 19.9684 10.3966 19.7823V19.0621C10.3966 18.8761 10.2458 18.7252 10.0597 18.7252Z" fill="white"/>
<path d="M11.5 18.7252C11.3139 18.7252 11.1631 18.8761 11.1631 19.0621V19.7823C11.1631 19.9684 11.3139 20.1192 11.5 20.1192C11.6861 20.1192 11.8369 19.9684 11.8369 19.7823V19.0621C11.8369 18.8761 11.6861 18.7252 11.5 18.7252Z" fill="white"/>
<path d="M12.9403 18.7252C12.7542 18.7252 12.6034 18.8761 12.6034 19.0621V19.7823C12.6034 19.9684 12.7542 20.1192 12.9403 20.1192C13.1264 20.1192 13.2772 19.9684 13.2772 19.7823V19.0621C13.2772 18.8761 13.1264 18.7252 12.9403 18.7252Z" fill="white"/>
<path d="M14.3809 18.7252C14.1948 18.7252 14.0439 18.8761 14.0439 19.0621V19.7823C14.0439 19.9684 14.1948 20.1192 14.3809 20.1192C14.5669 20.1192 14.7178 19.9684 14.7178 19.7823V19.0621C14.7178 18.8761 14.5669 18.7252 14.3809 18.7252Z" fill="white"/>
<path d="M15.8212 18.7252C15.6351 18.7252 15.4843 18.8761 15.4843 19.0621V19.7823C15.4843 19.9684 15.6351 20.1192 15.8212 20.1192C16.0072 20.1192 16.1581 19.9684 16.1581 19.7823V19.0621C16.1581 18.8761 16.0072 18.7252 15.8212 18.7252Z" fill="white"/>
<path d="M17.2616 18.7252C17.0755 18.7252 16.9247 18.8761 16.9247 19.0621V19.7823C16.9247 19.9684 17.0755 20.1192 17.2616 20.1192C17.4477 20.1192 17.5985 19.9684 17.5985 19.7823V19.0621C17.5985 18.8761 17.4477 18.7252 17.2616 18.7252Z" fill="white"/>
<path d="M18.702 18.7252C18.516 18.7252 18.3651 18.8761 18.3651 19.0621V19.7823C18.3651 19.9684 18.516 20.1192 18.702 20.1192C18.8881 20.1192 19.0389 19.9684 19.0389 19.7823V19.0621C19.0389 18.8761 18.8881 18.7252 18.702 18.7252Z" fill="white"/>
</g>
<defs>
<clipPath id="clip0">
<rect width="23" height="23" fill="white"/>
</clipPath>
</defs>
</svg>
