<svg width="27" height="27" viewBox="0 0 27 27" fill="none" xmlns="http://www.w3.org/2000/svg">
<path d="M24.9016 10.6369C25.3905 10.1604 25.5631 9.46095 25.3521 8.81163C25.1411 8.16231 24.5904 7.69798 23.9147 7.59984L18.0069 6.74138C17.891 6.72456 17.7907 6.65173 17.7388 6.54658L15.0968 1.19325C14.7947 0.581004 14.1828 0.200684 13.5001 0.200684C12.8173 0.200684 12.2055 0.581004 11.9034 1.19325L9.26135 6.54663C9.2094 6.65173 9.10921 6.72456 8.99319 6.74143L3.08547 7.59984C2.40983 7.69798 1.85913 8.16231 1.64809 8.81163C1.43704 9.46095 1.60969 10.1604 2.09865 10.6369L6.37356 14.8039C6.45746 14.8858 6.4958 15.0036 6.47597 15.1192L5.46679 21.0031C5.35141 21.676 5.62278 22.3433 6.17512 22.7446C6.72746 23.146 7.44612 23.1978 8.05035 22.8802L13.3344 20.1022C13.4382 20.0476 13.562 20.0476 13.6659 20.1022L18.95 22.8802C19.2128 23.0184 19.4972 23.0867 19.7802 23.0866C20.1478 23.0866 20.513 22.9714 20.825 22.7445C21.3774 22.3432 21.6488 21.6759 21.5334 21.003L20.5242 15.1191C20.5044 15.0036 20.5427 14.8857 20.6266 14.8039L24.9016 10.6369ZM19.1204 15.36L20.1295 21.244C20.1633 21.4409 20.0417 21.5532 19.9879 21.5923C19.934 21.6313 19.7896 21.7124 19.6128 21.6193L14.3287 18.8413C14.0693 18.705 13.7848 18.6368 13.5002 18.6368C13.2156 18.6368 12.931 18.705 12.6716 18.8413L7.38759 21.6192C7.21072 21.7122 7.06638 21.6312 7.01254 21.5922C6.9587 21.5531 6.83709 21.4408 6.8709 21.2439L7.88007 15.36C7.97916 14.7823 7.78779 14.1932 7.36797 13.784L3.09306 9.61699C2.94999 9.47745 2.98237 9.31519 3.00299 9.25191C3.0235 9.18857 3.09274 9.03823 3.29044 9.00954L9.19812 8.15108C9.77814 8.06681 10.2794 7.70273 10.5388 7.17702L13.1809 1.82364C13.2693 1.6445 13.4336 1.62514 13.5002 1.62514C13.5667 1.62514 13.7311 1.64445 13.8195 1.82364V1.82369L16.4616 7.17707C16.721 7.70278 17.2222 8.06686 17.8022 8.15113L23.71 9.00959C23.9077 9.03828 23.9769 9.18863 23.9974 9.25196C24.018 9.31529 24.0504 9.47761 23.9073 9.61704L19.6324 13.7841C19.2126 14.1932 19.0213 14.7823 19.1204 15.36Z" fill="white"/>
<path d="M21.8206 1.19318C21.5023 0.961997 21.057 1.03256 20.8258 1.35076L20.0697 2.39131C19.8385 2.70951 19.909 3.15496 20.2273 3.38614C20.3538 3.47795 20.5003 3.5222 20.6454 3.5222C20.8656 3.5222 21.0828 3.42037 21.2221 3.22863L21.9782 2.18807C22.2094 1.86982 22.1389 1.42437 21.8206 1.19318Z" fill="white"/>
<path d="M6.92721 2.38733L6.17115 1.34677C5.94002 1.02868 5.49462 0.958121 5.17632 1.1892C4.85812 1.42039 4.78756 1.86584 5.01875 2.18404L5.7748 3.22459C5.91418 3.41649 6.13134 3.51827 6.35166 3.51827C6.49684 3.51827 6.64334 3.47403 6.76969 3.38216C7.08789 3.15103 7.15845 2.70558 6.92721 2.38733Z" fill="white"/>
<path d="M2.61308 16.1803C2.49153 15.8063 2.08975 15.6015 1.7156 15.723L0.492318 16.1205C0.118167 16.2421 -0.086495 16.644 0.0350577 17.018C0.132827 17.3191 0.412056 17.5104 0.712273 17.5104C0.785204 17.5104 0.859402 17.4991 0.932544 17.4753L2.15582 17.0778C2.52992 16.9562 2.73464 16.5544 2.61308 16.1803Z" fill="white"/>
<path d="M13.5003 24.0884C13.1069 24.0884 12.788 24.4073 12.788 24.8006V26.0869C12.788 26.4802 13.1069 26.7991 13.5003 26.7991C13.8936 26.7991 14.2125 26.4802 14.2125 26.0869V24.8006C14.2125 24.4072 13.8937 24.0884 13.5003 24.0884Z" fill="white"/>
<path d="M26.5077 16.1215L25.2844 15.724C24.9104 15.6025 24.5085 15.8071 24.3869 16.1813C24.2654 16.5554 24.47 16.9572 24.8442 17.0788L26.0675 17.4763C26.1406 17.5 26.2148 17.5113 26.2877 17.5113C26.588 17.5113 26.8672 17.3199 26.9649 17.0189C27.0865 16.6448 26.8818 16.243 26.5077 16.1215Z" fill="white"/>
</svg>
