<svg width="50" height="50" viewBox="0 0 50 50" fill="none" xmlns="http://www.w3.org/2000/svg">
<circle cx="25" cy="25" r="24" stroke="white" stroke-width="2"/>
<path d="M18.2812 29.2792C18.0987 29.1078 17.9978 28.8781 18 28.6398C18.0023 28.4014 18.1077 28.1734 18.2934 28.0048C18.4791 27.8363 18.7304 27.7407 18.9931 27.7386C19.2557 27.7365 19.5088 27.8282 19.6977 27.9938L23.9982 31.8965V15.9091C23.9982 15.668 24.1038 15.4368 24.2916 15.2663C24.4795 15.0958 24.7343 15 25 15C25.2657 15 25.5205 15.0958 25.7083 15.2663C25.8962 15.4368 26.0018 15.668 26.0018 15.9091V31.8965L30.3023 27.9938C30.4912 27.8282 30.7443 27.7365 31.0069 27.7386C31.2696 27.7407 31.5209 27.8363 31.7066 28.0048C31.8923 28.1734 31.9977 28.4014 32 28.6398C32.0022 28.8781 31.9013 29.1078 31.7188 29.2792L25.7082 34.7338C25.5204 34.9043 25.2656 35 25 35C24.7344 35 24.4796 34.9043 24.2918 34.7338L18.2812 29.2792Z" fill="white"/>
</svg>
