<svg width="25" height="25" viewBox="0 0 25 25" fill="none" xmlns="http://www.w3.org/2000/svg">
<g clip-path="url(#clip0)">
<path d="M20.9145 15.5901C21.9591 14.0036 22.5681 12.1059 22.5681 10.0683C22.5681 4.5166 18.0513 0 12.4996 0C6.9479 0 2.4313 4.5166 2.4313 10.0683C2.4313 12.1059 3.04031 14.0036 4.08478 15.5901L0.146484 21.3337L4.65298 20.4935L5.49335 25L9.20734 19.5833C10.2396 19.9415 11.3472 20.1366 12.4996 20.1366C13.6522 20.1366 14.7598 19.9415 15.7919 19.5833L19.5061 25L20.3463 20.4935L24.8528 21.3337L20.9145 15.5901ZM6.28967 21.233L5.83134 18.7748L3.37334 19.2333L5.03197 16.8142C5.82638 17.6928 6.77338 18.4305 7.83043 18.9863L6.28967 21.233ZM3.90472 10.0683C3.90472 5.32913 7.76043 1.47343 12.4996 1.47343C17.239 1.47343 21.0947 5.32913 21.0947 10.0683C21.0947 14.8077 17.239 18.6634 12.4996 18.6634C7.76043 18.6634 3.90472 14.8077 3.90472 10.0683ZM19.1679 18.7748L18.7096 21.233L17.169 18.9863C18.2261 18.4305 19.173 17.6928 19.9675 16.8142L21.6261 19.2331L19.1679 18.7748Z" fill="white"/>
<path d="M10.7048 12.2795L8.30919 9.88406L7.2674 10.9259L10.7048 14.3633L17.7321 7.33623L16.6903 6.29443L10.7048 12.2795Z" fill="white"/>
</g>
<defs>
<clipPath id="clip0">
<rect width="25" height="25" fill="white"/>
</clipPath>
</defs>
</svg>
