<svg width="24" height="24" viewBox="0 0 24 24" fill="none" xmlns="http://www.w3.org/2000/svg">
<path d="M21.8906 4.96875H18.2541C17.9638 4.15036 17.1823 3.5625 16.2656 3.5625H15.4919C15.1652 1.9598 13.7446 0.75 12.0469 0.75C10.2972 0.75 8.84217 2.00442 8.51114 3.5625H7.73438C6.81773 3.5625 6.03619 4.15036 5.74594 4.96875H2.10938C0.946266 4.96875 0 5.91502 0 7.07812V21.1406C0 22.3037 0.946266 23.25 2.10938 23.25H21.8906C23.0537 23.25 24 22.3037 24 21.1406V7.07812C24 5.91502 23.0537 4.96875 21.8906 4.96875ZM7.03125 5.67188C7.03125 5.28417 7.34667 4.96875 7.73438 4.96875H9.14062C9.52894 4.96875 9.84375 4.65394 9.84375 4.26562C9.84375 3.1222 10.8526 2.15625 12.0469 2.15625C13.21 2.15625 14.1562 3.10252 14.1562 4.26562C14.1562 4.65394 14.4711 4.96875 14.8594 4.96875H16.2656C16.6533 4.96875 16.9688 5.28417 16.9688 5.67188V7.07812C16.9688 7.46583 16.6533 7.78125 16.2656 7.78125H7.73438C7.34667 7.78125 7.03125 7.46583 7.03125 7.07812V5.67188ZM22.5938 21.1406C22.5938 21.5283 22.2783 21.8438 21.8906 21.8438H2.10938C1.72167 21.8438 1.40625 21.5283 1.40625 21.1406V7.07812C1.40625 6.69042 1.72167 6.375 2.10938 6.375H5.625V7.07812C5.625 8.24123 6.57127 9.1875 7.73438 9.1875H16.2656C17.4287 9.1875 18.375 8.24123 18.375 7.07812V6.375H21.8906C22.2783 6.375 22.5938 6.69042 22.5938 7.07812V21.1406Z" fill="white"/>
<path d="M20.7814 13.832L18.0822 13.4397L16.875 10.9938C16.6177 10.4724 15.8715 10.4719 15.614 10.9938L14.4069 13.4397L11.7076 13.832C11.1322 13.9156 10.9012 14.6251 11.3179 15.0313L13.2712 16.9352L12.8101 19.6236C12.7118 20.1967 13.3151 20.6356 13.8303 20.3648L16.2446 19.0955L18.6589 20.3648C19.1736 20.6354 19.7775 20.1971 19.6791 19.6236L19.218 16.9352L21.1712 15.0313C21.5875 14.6254 21.3573 13.9156 20.7814 13.832ZM17.9717 16.1862C17.806 16.3478 17.7303 16.5805 17.7694 16.8086L18.0522 18.4571L16.5717 17.6788C16.3669 17.5712 16.1222 17.5711 15.9173 17.6788L14.4369 18.4571L14.7196 16.8086C14.7587 16.5805 14.6831 16.3478 14.5174 16.1862L13.3196 15.0187L14.9749 14.7782C15.2039 14.7449 15.4019 14.6011 15.5043 14.3936L16.2446 12.8936L16.9848 14.3936C17.0872 14.6011 17.2852 14.7449 17.5142 14.7782L19.1694 15.0187L17.9717 16.1862Z" fill="white"/>
<path d="M9.14062 12H3.51562C3.12731 12 2.8125 12.3148 2.8125 12.7031C2.8125 13.0914 3.12731 13.4062 3.51562 13.4062H9.14062C9.52894 13.4062 9.84375 13.0914 9.84375 12.7031C9.84375 12.3148 9.52894 12 9.14062 12Z" fill="white"/>
<path d="M9.14062 14.8125H3.51562C3.12731 14.8125 2.8125 15.1273 2.8125 15.5156C2.8125 15.9039 3.12731 16.2188 3.51562 16.2188H9.14062C9.52894 16.2188 9.84375 15.9039 9.84375 15.5156C9.84375 15.1273 9.52894 14.8125 9.14062 14.8125Z" fill="white"/>
<path d="M9.14062 17.625H3.51562C3.12731 17.625 2.8125 17.9398 2.8125 18.3281C2.8125 18.7164 3.12731 19.0312 3.51562 19.0312H9.14062C9.52894 19.0312 9.84375 18.7164 9.84375 18.3281C9.84375 17.9398 9.52894 17.625 9.14062 17.625Z" fill="white"/>
<path d="M12.0469 4.96875C12.4352 4.96875 12.75 4.65395 12.75 4.26562C12.75 3.8773 12.4352 3.5625 12.0469 3.5625C11.6585 3.5625 11.3438 3.8773 11.3438 4.26562C11.3438 4.65395 11.6585 4.96875 12.0469 4.96875Z" fill="white"/>
</svg>
