<svg width="18" height="18" viewBox="0 0 18 18" fill="none" xmlns="http://www.w3.org/2000/svg">
<path d="M0.375855 3.34533C2.84628 5.43751 7.18112 9.1183 8.45518 10.266C8.62622 10.4209 8.80966 10.4996 9.0001 10.4996C9.19016 10.4996 9.37329 10.4216 9.54394 10.2675C10.8191 9.11865 15.1539 5.43751 17.6244 3.34533C17.7782 3.21532 17.8016 2.9868 17.6771 2.82786C17.3893 2.46059 16.9601 2.25 16.5001 2.25H1.50012C1.04017 2.25 0.610945 2.46059 0.323121 2.8279C0.198597 2.9868 0.222046 3.21532 0.375855 3.34533Z" fill="#3DBA20"/>
<path d="M17.7825 4.47881C17.6496 4.41693 17.4932 4.43852 17.3826 4.53302C14.6429 6.85551 11.1464 9.83247 10.0463 10.8238C9.4288 11.3811 8.57187 11.3811 7.95298 10.823C6.78038 9.76652 2.85384 6.4285 0.617414 4.53298C0.506074 4.43848 0.349348 4.41764 0.217512 4.47877C0.0849726 4.54033 0 4.67291 0 4.81902V14.2497C0 15.077 0.672715 15.7497 1.50001 15.7497H16.5C17.3273 15.7497 18 15.077 18 14.2497V4.81902C18 4.67291 17.915 4.53998 17.7825 4.47881Z" fill="#3DBA20"/>
</svg>
