<svg width="23" height="23" viewBox="0 0 23 23" fill="none" xmlns="http://www.w3.org/2000/svg">
<g clip-path="url(#clip0)">
<path d="M20.7196 15.3088H19.803C19.8272 15.1787 19.8819 15.0219 19.9934 14.849C20.3369 14.3167 20.4103 13.8467 20.4751 13.432C20.5159 13.1706 20.5545 12.9238 20.6595 12.639C20.7524 12.3867 20.9313 12.1818 21.1144 12.0256L21.748 13.5876L23 13.0796L20.7345 7.47763L20.1841 7.58901C20.1213 7.60171 18.6346 7.9202 17.705 9.64158C17.0266 10.898 15.499 11.8735 13.6406 12.2644L13.2701 10.9055L12.6096 11.0988C11.5186 11.4181 10.8844 11.7058 9.90819 12.2826C9.90293 12.2895 9.89748 12.2966 9.89221 12.3035L7.32609 15.7494H5.21983C5.21983 15.7494 4.0397 14.1407 3.36542 13.2432C2.98955 13.3865 2.65916 13.5948 2.37129 13.8696C1.64301 14.5649 1.34654 15.7155 1.58073 16.768L0 17.8193L1.869 21.1994H2.77563L3.47612 20.411C4.1831 19.6155 5.19894 19.1592 6.26319 19.1592C7.16094 19.1592 8.03023 19.4846 8.711 20.0756C9.4858 20.7481 10.2391 21.1173 10.9476 21.196C11.7611 21.2865 12.2517 21.0874 12.9084 20.8768C13.4061 20.7172 13.7863 20.5533 14.4387 20.6379C14.7143 20.6736 14.9652 20.6907 15.195 20.6907C16.4842 20.6906 17.1022 20.153 17.5891 19.3541C17.7572 19.0781 17.9922 18.9194 18.2159 18.849C18.8018 18.6643 19.3401 19.3514 19.3401 19.3514L20.6166 18.724C20.8437 19.349 20.9591 20.0028 20.9591 20.6701H22.3102C22.3102 19.7685 22.1404 18.8868 21.8056 18.0497L20.7196 15.3088Z" fill="white"/>
<path d="M5.90459 14.3983H6.64161L8.81857 11.4834C9.73749 10.2812 10.996 8.63466 10.996 6.50449C10.996 3.90027 8.87734 1.78159 6.27312 1.78159C3.6689 1.78159 1.55017 3.90027 1.55017 6.50449C1.55017 8.63466 2.80866 10.2812 3.72763 11.4834L5.90459 14.3983ZM4.02424 6.50449C4.02424 5.26446 5.03309 4.25561 6.27312 4.25561C7.51315 4.25561 8.522 5.26446 8.522 6.50449C8.522 7.74452 7.51315 8.75338 6.27312 8.75338C5.03309 8.75338 4.02424 7.74456 4.02424 6.50449Z" fill="white"/>
<path d="M7.1054 6.84963C7.29531 6.39148 7.07785 5.86612 6.61969 5.67621C6.16154 5.48631 5.63618 5.70377 5.44627 6.16192C5.25637 6.62008 5.47383 7.14544 5.93198 7.33534C6.39014 7.52525 6.91549 7.30779 7.1054 6.84963Z" fill="white"/>
</g>
<defs>
<clipPath id="clip0">
<rect width="23" height="23" fill="white"/>
</clipPath>
</defs>
</svg>
