<svg width="68" height="88" viewBox="0 0 68 88" fill="none" xmlns="http://www.w3.org/2000/svg">
<g filter="url(#filter0_d)">
<path d="M34.0009 10C21.5028 10 11.3342 20.1685 11.3342 32.6667C11.3342 36.4187 12.2723 40.1387 14.0556 43.4383L32.7614 77.2695C33.0104 77.7206 33.485 78 34.0009 78C34.5169 78 34.9915 77.7206 35.2405 77.2695L53.9532 43.4272C55.7296 40.1387 56.6676 36.4185 56.6676 32.6666C56.6676 20.1685 46.4991 10 34.0009 10ZM34.0009 44C27.7518 44 22.6677 38.9158 22.6677 32.6667C22.6677 26.4176 27.7518 21.3334 34.0009 21.3334C40.25 21.3334 45.3342 26.4176 45.3342 32.6667C45.3342 38.9158 40.25 44 34.0009 44Z" fill="#68E84B"/>
</g>
<defs>
<filter id="filter0_d" x="-10" y="0" width="88" height="88" filterUnits="userSpaceOnUse" color-interpolation-filters="sRGB">
<feFlood flood-opacity="0" result="BackgroundImageFix"/>
<feColorMatrix in="SourceAlpha" type="matrix" values="0 0 0 0 0 0 0 0 0 0 0 0 0 0 0 0 0 0 127 0"/>
<feOffset/>
<feGaussianBlur stdDeviation="5"/>
<feColorMatrix type="matrix" values="0 0 0 0 0 0 0 0 0 0 0 0 0 0 0 0 0 0 0.25 0"/>
<feBlend mode="normal" in2="BackgroundImageFix" result="effect1_dropShadow"/>
<feBlend mode="normal" in="SourceGraphic" in2="effect1_dropShadow" result="shape"/>
</filter>
</defs>
</svg>
