<svg width="12" height="20" viewBox="0 0 12 20" fill="none" xmlns="http://www.w3.org/2000/svg">
<path d="M10.2067 0H1.79137C0.986576 0 0.336426 0.652675 0.336426 1.45747V18.5444C0.336426 19.3467 0.986576 20 1.79137 20H10.2067C11.0102 20 11.6629 19.3473 11.6629 18.5444V1.45747C11.6623 0.652675 11.0102 0 10.2067 0ZM10.5716 16.2045H1.42779V2.45858H10.5716V16.2045ZM7.95012 1.47893H4.04859V1.0535H7.95075L7.95012 1.47893ZM9.61968 1.28452C9.61968 1.4903 9.45178 1.65694 9.24664 1.65694C9.04086 1.65694 8.87359 1.48966 8.87359 1.28452C8.87359 1.07938 9.04086 0.912104 9.24664 0.912104C9.45241 0.911472 9.61968 1.07874 9.61968 1.28452ZM7.77528 18.4472H4.22218V17.354H7.77528V18.4472Z" fill="#3DBA20"/>
</svg>
