<svg width="24" height="24" viewBox="0 0 24 24" fill="none" xmlns="http://www.w3.org/2000/svg">
<path d="M18.5 17.5C16.846 17.5 15.5 16.154 15.5 14.5C15.5 12.846 16.846 11.5 18.5 11.5C20.154 11.5 21.5 12.846 21.5 14.5C21.5 16.154 20.154 17.5 18.5 17.5ZM18.5 12.5C17.397 12.5 16.5 13.397 16.5 14.5C16.5 15.603 17.397 16.5 18.5 16.5C19.603 16.5 20.5 15.603 20.5 14.5C20.5 13.397 19.603 12.5 18.5 12.5Z" fill="#3DBA20"/>
<path d="M23.5 24C23.224 24 23 23.776 23 23.5V21.5C23 20.673 22.327 20 21.5 20H15.5C14.673 20 14 20.673 14 21.5V23.5C14 23.776 13.776 24 13.5 24C13.224 24 13 23.776 13 23.5V21.5C13 20.121 14.121 19 15.5 19H21.5C22.879 19 24 20.121 24 21.5V23.5C24 23.776 23.776 24 23.5 24Z" fill="#3DBA20"/>
<path d="M11.5 16C11.377 16 11.255 15.954 11.161 15.867L8.055 13H2.5C1.121 13 0 11.879 0 10.5V2.5C0 1.121 1.121 0 2.5 0H12.5C13.879 0 15 1.121 15 2.5V10.5C15 11.879 13.879 13 12.5 13H12V15.5C12 15.698 11.883 15.878 11.7 15.958C11.636 15.986 11.567 16 11.5 16ZM2.5 1C1.673 1 1 1.673 1 2.5V10.5C1 11.327 1.673 12 2.5 12H8.25C8.376 12 8.497 12.047 8.589 12.133L11 14.358V12.5C11 12.224 11.224 12 11.5 12H12.5C13.327 12 14 11.327 14 10.5V2.5C14 1.673 13.327 1 12.5 1H2.5Z" fill="#3DBA20"/>
<path d="M7.5 9C7.224 9 7 8.776 7 8.5V8.237C7 7.277 7.505 6.356 8.386 5.711C8.776 5.425 9 4.983 9 4.5C9 3.673 8.327 3 7.5 3C6.673 3 6 3.673 6 4.5C6 4.776 5.776 5 5.5 5C5.224 5 5 4.776 5 4.5C5 3.121 6.121 2 7.5 2C8.879 2 10 3.121 10 4.5C10 5.293 9.618 6.047 8.978 6.518C8.612 6.785 8 7.364 8 8.237V8.5C8 8.776 7.776 9 7.5 9Z" fill="#3DBA20"/>
<path d="M4 19C2.897 19 2 18.103 2 17C2 15.897 2.897 15 4 15C5.103 15 6 15.897 6 17C6 18.103 5.103 19 4 19ZM4 16C3.448 16 3 16.448 3 17C3 17.552 3.448 18 4 18C4.552 18 5 17.552 5 17C5 16.448 4.552 16 4 16Z" fill="#3DBA20"/>
<path d="M7.5 24C7.224 24 7 23.776 7 23.5V22.5C7 21.673 6.327 21 5.5 21H2.5C1.673 21 1 21.673 1 22.5V23.5C1 23.776 0.776 24 0.5 24C0.224 24 0 23.776 0 23.5V22.5C0 21.121 1.121 20 2.5 20H5.5C6.879 20 8 21.121 8 22.5V23.5C8 23.776 7.776 24 7.5 24Z" fill="#3DBA20"/>
<path d="M7.49993 10.996C7.77166 10.996 7.99194 10.7757 7.99194 10.504C7.99194 10.2322 7.77166 10.012 7.49993 10.012C7.22821 10.012 7.00793 10.2322 7.00793 10.504C7.00793 10.7757 7.22821 10.996 7.49993 10.996Z" fill="#3DBA20"/>
</svg>
