<svg width="21" height="21" viewBox="0 0 21 21" fill="none" xmlns="http://www.w3.org/2000/svg">
<g clip-path="url(#clip0)">
<path d="M14.7889 0C11.3642 0 8.57788 2.78629 8.57788 6.2111C8.57788 7.69971 9.10449 9.06755 9.98093 10.1386L8.66295 11.4565L8.05091 10.8444C7.80875 10.6022 7.41679 10.605 7.17747 10.8444C5.14064 12.8807 6.70489 11.3165 0.615918 17.4055C-0.205306 18.2267 -0.205306 19.5629 0.615918 20.3841C1.02653 20.7947 1.56586 21 2.10523 21C2.64456 21 3.18393 20.7947 3.59454 20.3841C9.52791 14.4507 7.68139 16.2971 10.1559 13.8232L10.156 13.8231C10.1596 13.8195 10.1627 13.8154 10.1663 13.8117C10.4015 13.5645 10.3892 13.1826 10.156 12.9495L9.53647 12.33L10.8537 11.0128C11.9258 11.8931 13.2967 12.4222 14.7889 12.4222C18.2137 12.4222 21 9.63587 21 6.2111C21 2.78629 18.2137 0 14.7889 0V0ZM8.84569 13.3862C8.59686 13.6351 8.78459 13.4473 7.90004 14.3317L6.66845 13.1001L7.61415 12.1546C7.97683 12.5173 7.19312 11.7336 8.84569 13.3862ZM2.72102 19.5106C2.38148 19.8501 1.82898 19.8501 1.48944 19.5106C1.14989 19.1711 1.14989 18.6186 1.48944 18.279L5.79485 13.9736L7.02656 15.2053L2.72102 19.5106ZM14.7889 11.1868C12.0453 11.1868 9.81326 8.95469 9.81326 6.21106C9.81326 3.46743 12.0454 1.23534 14.7889 1.23534C17.5325 1.23534 19.7647 3.46747 19.7647 6.2111C19.7647 8.95469 17.5326 11.1868 14.7889 11.1868Z" fill="white"/>
<path d="M14.9274 2.84437C13.7798 2.76547 12.8181 3.67584 12.8181 4.81034C12.8181 5.15149 13.0947 5.42803 13.4358 5.42803C13.777 5.42803 14.0535 5.15149 14.0535 4.81034C14.0535 4.38663 14.4102 4.04684 14.8424 4.07678C15.1991 4.1014 15.4978 4.4001 15.5225 4.75685C15.5458 5.09528 15.3383 5.4048 15.0178 5.5096C14.5115 5.67517 14.1712 6.1419 14.1712 6.67102V7.12211C14.1712 7.46326 14.4478 7.7398 14.7889 7.7398C15.1301 7.7398 15.4066 7.46326 15.4066 7.12211V6.68218C16.2629 6.39975 16.8171 5.57383 16.7549 4.67182C16.6877 3.69717 15.902 2.91153 14.9274 2.84437Z" fill="white"/>
<path d="M14.789 8.30273C14.4478 8.30273 14.1713 8.57928 14.1713 8.92042V8.96493C14.1713 9.30608 14.4478 9.58262 14.789 9.58262C15.1301 9.58262 15.4066 9.30608 15.4066 8.96493V8.92042C15.4066 8.57928 15.1301 8.30273 14.789 8.30273Z" fill="white"/>
</g>
<defs>
<clipPath id="clip0">
<rect width="21" height="21" fill="white"/>
</clipPath>
</defs>
</svg>
