<svg width="22" height="22" viewBox="0 0 22 22" fill="none" xmlns="http://www.w3.org/2000/svg">
<g clip-path="url(#clip0)">
<path d="M16.0417 22.0002C12.7564 22.0002 10.0834 19.3272 10.0834 16.0418C10.0834 12.7565 12.7564 10.0835 16.0417 10.0835C19.327 10.0835 22 12.7565 22 16.0418C22 19.3272 19.327 22.0002 16.0417 22.0002ZM16.0417 11.0002C13.2615 11.0002 11 13.2625 11 16.0418C11 18.8212 13.2615 21.0835 16.0417 21.0835C18.822 21.0835 21.0834 18.8212 21.0834 16.0418C21.0834 13.2625 18.822 11.0002 16.0417 11.0002Z" fill="#3DBA20"/>
<path d="M16.0417 18.3337C15.7887 18.3337 15.5833 18.1283 15.5833 17.8753V17.6342C15.5833 16.7533 16.0462 15.9091 16.8538 15.3187C17.2113 15.0566 17.4167 14.6514 17.4167 14.2087C17.4167 13.4506 16.7997 12.8337 16.0417 12.8337C15.2836 12.8337 14.6667 13.4506 14.6667 14.2087C14.6667 14.4617 14.4613 14.667 14.2083 14.667C13.9553 14.667 13.75 14.4617 13.75 14.2087C13.75 12.9446 14.7785 11.917 16.0417 11.917C17.3048 11.917 18.3333 12.9446 18.3333 14.2087C18.3333 14.9356 17.9832 15.6277 17.3956 16.0585C17.061 16.3032 16.5 16.8331 16.5 17.6342V17.8753C16.5 18.1283 16.2947 18.3337 16.0417 18.3337Z" fill="#3DBA20"/>
<path d="M16.0417 20.1666C15.9225 20.1666 15.8034 20.1207 15.7209 20.0291C15.6292 19.9466 15.5834 19.8274 15.5834 19.7082C15.5834 19.6441 15.5925 19.5891 15.62 19.5341C15.6384 19.4791 15.675 19.4241 15.7209 19.3874C15.7575 19.3416 15.8125 19.3049 15.8675 19.2875C16.0325 19.2141 16.2342 19.26 16.3625 19.3874C16.4542 19.4699 16.5 19.5891 16.5 19.7082C16.5 19.7632 16.4909 19.8274 16.4634 19.8815C16.445 19.9374 16.4084 19.9915 16.3625 20.0281C16.28 20.1207 16.1609 20.1666 16.0417 20.1666Z" fill="#3DBA20"/>
<path d="M8.70833 19.25H2.29167C1.0285 19.25 0 18.2224 0 16.9583V5.04167C0 3.77758 1.0285 2.75 2.29167 2.75H4.125C4.378 2.75 4.58333 2.95533 4.58333 3.20833C4.58333 3.46133 4.378 3.66667 4.125 3.66667H2.29167C1.53358 3.66667 0.916667 4.28358 0.916667 5.04167V16.9583C0.916667 17.7164 1.53358 18.3333 2.29167 18.3333H8.70833C8.96133 18.3333 9.16667 18.5387 9.16667 18.7917C9.16667 19.0447 8.96133 19.25 8.70833 19.25Z" fill="#3DBA20"/>
<path d="M10.5416 5.5H5.04163C4.28354 5.5 3.66663 4.88308 3.66663 4.125V2.29167C3.66663 2.03867 3.87196 1.83333 4.12496 1.83333H5.54579C5.75938 0.788333 6.68429 0 7.79163 0C8.89896 0 9.82388 0.788333 10.0375 1.83333H11.4583C11.7113 1.83333 11.9166 2.03867 11.9166 2.29167V4.125C11.9166 4.88308 11.2997 5.5 10.5416 5.5ZM4.58329 2.75V4.125C4.58329 4.37708 4.78863 4.58333 5.04163 4.58333H10.5416C10.7946 4.58333 11 4.37708 11 4.125V2.75H9.62496C9.37196 2.75 9.16663 2.54467 9.16663 2.29167C9.16663 1.53358 8.54971 0.916667 7.79163 0.916667C7.03354 0.916667 6.41663 1.53358 6.41663 2.29167C6.41663 2.54467 6.21129 2.75 5.95829 2.75H4.58329Z" fill="#3DBA20"/>
<path d="M12.375 8.24967H3.20833C2.95533 8.24967 2.75 8.04434 2.75 7.79134C2.75 7.53834 2.95533 7.33301 3.20833 7.33301H12.375C12.628 7.33301 12.8333 7.53834 12.8333 7.79134C12.8333 8.04434 12.628 8.24967 12.375 8.24967Z" fill="#3DBA20"/>
<path d="M9.625 11.0002H3.20833C2.95533 11.0002 2.75 10.7948 2.75 10.5418C2.75 10.2888 2.95533 10.0835 3.20833 10.0835H9.625C9.878 10.0835 10.0833 10.2888 10.0833 10.5418C10.0833 10.7948 9.878 11.0002 9.625 11.0002Z" fill="#3DBA20"/>
<path d="M7.79167 13.7497H3.20833C2.95533 13.7497 2.75 13.5443 2.75 13.2913C2.75 13.0383 2.95533 12.833 3.20833 12.833H7.79167C8.04467 12.833 8.25 13.0383 8.25 13.2913C8.25 13.5443 8.04467 13.7497 7.79167 13.7497Z" fill="#3DBA20"/>
<path d="M15.125 8.25C14.872 8.25 14.6667 8.04467 14.6667 7.79167V5.04167C14.6667 4.28358 14.0497 3.66667 13.2917 3.66667H11.4583C11.2053 3.66667 11 3.46133 11 3.20833C11 2.95533 11.2053 2.75 11.4583 2.75H13.2917C14.5548 2.75 15.5833 3.77758 15.5833 5.04167V7.79167C15.5833 8.04467 15.378 8.25 15.125 8.25Z" fill="#3DBA20"/>
</g>
<defs>
<clipPath id="clip0">
<rect width="22" height="22" fill="white"/>
</clipPath>
</defs>
</svg>
