<svg width="28" height="28" viewBox="0 0 28 28" fill="none" xmlns="http://www.w3.org/2000/svg">
<path d="M3.9375 14.875H4.84263L5.57266 25.0934C5.61385 25.6445 5.8614 26.1598 6.26588 26.5364C6.67037 26.913 7.20202 27.1232 7.75469 27.125H19.3703C19.923 27.1232 20.4546 26.913 20.8591 26.5364C21.2636 26.1598 21.5112 25.6445 21.5523 25.0934L22.2824 14.875H23.1875C23.3035 14.875 23.4148 14.8289 23.4969 14.7469C23.5789 14.6648 23.625 14.5535 23.625 14.4375V12.6875C23.6246 12.3395 23.4862 12.0059 23.2401 11.7599C22.9941 11.5138 22.6605 11.3754 22.3125 11.375H21.4345L24.4735 3.48611C24.4941 3.43249 24.504 3.37534 24.5026 3.3179C24.5011 3.26046 24.4884 3.20387 24.4651 3.15136C24.4418 3.09885 24.4084 3.05144 24.3667 3.01184C24.3251 2.97224 24.2761 2.94124 24.2225 2.92059L21.3371 1.80928C21.2289 1.76759 21.1085 1.77061 21.0024 1.81769C20.8964 1.86476 20.8134 1.95203 20.7717 2.0603L18.8125 7.14623V1.3125C18.8125 1.19647 18.7664 1.08519 18.6844 1.00314C18.6023 0.921094 18.491 0.875 18.375 0.875H15.75C15.634 0.875 15.5227 0.921094 15.4406 1.00314C15.3586 1.08519 15.3125 1.19647 15.3125 1.3125V4.8125H11.375V1.3125C11.375 1.19647 11.3289 1.08519 11.2469 1.00314C11.1648 0.921094 11.0535 0.875 10.9375 0.875H8.3125C8.19647 0.875 8.08519 0.921094 8.00314 1.00314C7.92109 1.08519 7.875 1.19647 7.875 1.3125V4.375H7C6.88397 4.375 6.77269 4.42109 6.69064 4.50314C6.60859 4.58519 6.5625 4.69647 6.5625 4.8125V6.3082C6.17271 6.47872 5.84101 6.75906 5.60793 7.115C5.37485 7.47093 5.25047 7.88704 5.25 8.3125V11.375H4.8125C4.46453 11.3754 4.13092 11.5138 3.88487 11.7599C3.63882 12.0059 3.50041 12.3395 3.5 12.6875V14.4375C3.5 14.5535 3.54609 14.6648 3.62814 14.7469C3.71019 14.8289 3.82147 14.875 3.9375 14.875ZM20.6797 25.031C20.655 25.3617 20.5065 25.6709 20.2637 25.8969C20.021 26.1229 19.7019 26.249 19.3703 26.25H7.75469C7.42309 26.2489 7.10411 26.1228 6.86142 25.8968C6.61873 25.6709 6.47019 25.3617 6.44547 25.031L5.71988 14.875H21.4051L20.6797 25.031ZM21.4309 2.78305L23.4997 3.57984L20.4969 11.375H18.121L21.4309 2.78305ZM8.75 1.75H10.5V5.25C10.5 5.36603 10.5461 5.47731 10.6281 5.55936C10.7102 5.64141 10.8215 5.6875 10.9375 5.6875H15.75C15.866 5.6875 15.9773 5.64141 16.0594 5.55936C16.1414 5.47731 16.1875 5.36603 16.1875 5.25V1.75H17.9375V9.41719L17.1833 11.375H16.625V10.0625C16.6246 9.71452 16.4862 9.38091 16.2401 9.13485C15.9941 8.8888 15.6605 8.75039 15.3125 8.75V7C15.3125 6.88397 15.2664 6.77269 15.1844 6.69064C15.1023 6.60859 14.991 6.5625 14.875 6.5625H13.125C13.009 6.5625 12.8977 6.60859 12.8156 6.69064C12.7336 6.77269 12.6875 6.88397 12.6875 7V8.75C12.3395 8.75039 12.0059 8.8888 11.7599 9.13485C11.5138 9.38091 11.3754 9.71452 11.375 10.0625V11.375H10.5V8.3125C10.4995 7.88704 10.3752 7.47093 10.1421 7.115C9.90899 6.75906 9.57729 6.47872 9.1875 6.3082V4.8125C9.1875 4.69647 9.14141 4.58519 9.05936 4.50314C8.97731 4.42109 8.86603 4.375 8.75 4.375V1.75ZM14.875 9.625H15.3125C15.4285 9.62513 15.5397 9.67127 15.6217 9.75328C15.7037 9.8353 15.7499 9.94651 15.75 10.0625V11.375H12.25V10.0625C12.2501 9.94651 12.2963 9.8353 12.3783 9.75328C12.4603 9.67127 12.5715 9.62513 12.6875 9.625H13.125C13.241 9.625 13.3523 9.57891 13.4344 9.49686C13.5164 9.41481 13.5625 9.30353 13.5625 9.1875V7.4375H14.4375V9.1875C14.4375 9.30353 14.4836 9.41481 14.5656 9.49686C14.6477 9.57891 14.759 9.625 14.875 9.625ZM9.625 8.75V9.625H6.125V8.75H9.625ZM7.4375 5.25H8.3125V6.125H7.4375V5.25ZM7.4375 7H8.3125C8.58381 7.00035 8.84837 7.08463 9.06989 7.24129C9.2914 7.39795 9.45902 7.61931 9.54975 7.875H6.20025C6.29098 7.61931 6.4586 7.39795 6.68011 7.24129C6.90163 7.08463 7.16619 7.00035 7.4375 7V7ZM6.125 10.5H9.625V11.375H6.125V10.5ZM4.375 12.6875C4.37513 12.5715 4.42127 12.4603 4.50328 12.3783C4.5853 12.2963 4.69651 12.2501 4.8125 12.25H22.3125C22.4285 12.2501 22.5397 12.2963 22.6217 12.3783C22.7037 12.4603 22.7499 12.5715 22.75 12.6875V14H4.375V12.6875Z" fill="#3DBA20"/>
<path d="M9.62499 24.0624H11.8125C11.9285 24.0624 12.0398 24.0164 12.1218 23.9343C12.2039 23.8523 12.25 23.741 12.25 23.6249C12.25 23.5089 12.2039 23.3976 12.1218 23.3156C12.0398 23.2335 11.9285 23.1874 11.8125 23.1874H10.3827L11.4445 21.3484L11.4914 21.5234C11.5063 21.5789 11.5319 21.6309 11.5669 21.6765C11.6019 21.7221 11.6455 21.7603 11.6953 21.7891C11.745 21.8178 11.7999 21.8364 11.8569 21.8439C11.9139 21.8514 11.9718 21.8477 12.0272 21.8328C12.0827 21.8179 12.1348 21.7923 12.1803 21.7573C12.2259 21.7223 12.2642 21.6787 12.2929 21.6289C12.3216 21.5792 12.3403 21.5243 12.3478 21.4673C12.3553 21.4103 12.3515 21.3524 12.3366 21.297L12.0164 20.1016C12.0015 20.0461 11.9758 19.9941 11.9409 19.9485C11.9059 19.9029 11.8623 19.8647 11.8125 19.8359C11.7627 19.8072 11.7078 19.7886 11.6508 19.7811C11.5938 19.7736 11.5359 19.7774 11.4804 19.7923L10.2851 20.1126C10.173 20.1426 10.0775 20.2159 10.0195 20.3164C9.96145 20.4169 9.94572 20.5363 9.97575 20.6484C10.0058 20.7605 10.0791 20.8561 10.1796 20.9141C10.2801 20.9721 10.3995 20.9878 10.5116 20.9578L10.6866 20.9109L9.24611 23.4062C9.20772 23.4727 9.1875 23.5481 9.1875 23.6249C9.1875 23.7017 9.20771 23.7772 9.24611 23.8437C9.28451 23.9102 9.33974 23.9654 9.40624 24.0038C9.47275 24.0422 9.54819 24.0624 9.62499 24.0624Z" fill="#3DBA20"/>
<path d="M12.25 18.8983C12.3505 18.9563 12.4699 18.972 12.582 18.942C12.694 18.912 12.7896 18.8387 12.8476 18.7382L13.5625 17.5C13.7751 17.8683 14.107 18.4431 14.6242 19.339L14.4492 19.2921C14.3937 19.2772 14.3359 19.2734 14.2789 19.2809C14.2219 19.2884 14.167 19.3071 14.1173 19.3358C14.0675 19.3645 14.0239 19.4028 13.9889 19.4484C13.9539 19.494 13.9283 19.546 13.9134 19.6015C13.8985 19.657 13.8948 19.7149 13.9023 19.7718C13.9098 19.8288 13.9284 19.8837 13.9571 19.9335C13.9859 19.9832 14.0241 20.0268 14.0697 20.0618C14.1153 20.0968 14.1673 20.1224 14.2228 20.1373L15.4181 20.4576C15.4736 20.4725 15.5315 20.4764 15.5885 20.4689C15.6455 20.4614 15.7004 20.4428 15.7502 20.4141C15.8 20.3853 15.8436 20.3471 15.8786 20.3014C15.9136 20.2558 15.9392 20.2038 15.954 20.1482L16.2743 18.9529C16.2891 18.8974 16.2929 18.8396 16.2854 18.7826C16.2779 18.7256 16.2593 18.6707 16.2306 18.621C16.2018 18.5712 16.1636 18.5276 16.118 18.4926C16.0724 18.4576 16.0204 18.432 15.9649 18.4171C15.9094 18.4022 15.8515 18.3984 15.7946 18.4059C15.7376 18.4134 15.6827 18.4321 15.6329 18.4608C15.5832 18.4895 15.5396 18.5278 15.5046 18.5734C15.4696 18.619 15.4439 18.671 15.4291 18.7265L15.3822 18.9015C14.8017 17.8962 13.9493 16.4201 13.9417 16.4065C13.9033 16.3399 13.8481 16.2846 13.7815 16.2461C13.7149 16.2077 13.6394 16.1875 13.5625 16.1875C13.4857 16.1875 13.4102 16.2077 13.3437 16.2461C13.2772 16.2845 13.222 16.3397 13.1836 16.4063L12.0899 18.3007C12.0318 18.4012 12.0161 18.5206 12.0462 18.6327C12.0762 18.7447 12.1495 18.8403 12.25 18.8983Z" fill="#3DBA20"/>
<path d="M16.0274 21.9493L16.7423 23.1875H14.6188L14.7469 23.0593C14.8289 22.9773 14.875 22.866 14.875 22.75C14.875 22.6339 14.8289 22.5227 14.7469 22.4406C14.6648 22.3586 14.5536 22.3125 14.4375 22.3125C14.3215 22.3125 14.2102 22.3586 14.1281 22.4406L13.2531 23.3156C13.2125 23.3562 13.1803 23.4045 13.1583 23.4575C13.1363 23.5106 13.125 23.5675 13.125 23.625C13.125 23.6824 13.1363 23.7393 13.1583 23.7924C13.1803 23.8455 13.2125 23.8937 13.2531 23.9343L14.1281 24.8093C14.2102 24.8914 14.3215 24.9375 14.4375 24.9375C14.5536 24.9375 14.6648 24.8914 14.7469 24.8093C14.8289 24.7273 14.875 24.616 14.875 24.5C14.875 24.3839 14.8289 24.2726 14.7469 24.1906L14.6188 24.0625H17.5C17.5768 24.0625 17.6523 24.0422 17.7188 24.0039C17.7853 23.9655 17.8405 23.9102 17.8789 23.8437C17.9173 23.7772 17.9375 23.7018 17.9375 23.625C17.9375 23.5482 17.9173 23.4727 17.8789 23.4062L16.7851 21.5118C16.7566 21.4616 16.7185 21.4176 16.6729 21.3823C16.6273 21.3469 16.5751 21.3209 16.5194 21.3058C16.4638 21.2907 16.4056 21.2867 16.3484 21.2942C16.2912 21.3016 16.236 21.3203 16.1861 21.3491C16.1361 21.378 16.0923 21.4164 16.0573 21.4623C16.0222 21.5081 15.9966 21.5604 15.9818 21.6162C15.9671 21.672 15.9635 21.7301 15.9713 21.7873C15.9792 21.8445 15.9982 21.8995 16.0274 21.9493Z" fill="#3DBA20"/>
</svg>
