<svg width="34" height="34" viewBox="0 0 34 34" fill="none" xmlns="http://www.w3.org/2000/svg">
<circle cx="17" cy="17" r="16" stroke="white" stroke-width="2"/>
<path d="M21.0977 23H11.8008C11.8008 22.1341 11.931 21.3496 12.1914 20.6465C12.4518 19.9368 12.7904 19.3477 13.207 18.8789C13.6302 18.4102 14.0924 17.9805 14.5938 17.5898C15.1016 17.1992 15.6061 16.8444 16.1074 16.5254C16.6087 16.1999 17.0677 15.8809 17.4844 15.5684C17.9076 15.2559 18.2493 14.8913 18.5098 14.4746C18.7702 14.0514 18.9004 13.5924 18.9004 13.0977C18.9004 12.388 18.679 11.8281 18.2363 11.418C17.8001 11.0078 17.1882 10.8027 16.4004 10.8027C16.0163 10.8027 15.6549 10.8743 15.3164 11.0176C14.9844 11.1543 14.724 11.3203 14.5352 11.5156C14.3529 11.7044 14.1901 11.8965 14.0469 12.0918C13.9102 12.2871 13.8158 12.4564 13.7637 12.5996L13.6953 12.8047L11.8984 12.0039C11.9245 11.9128 11.9603 11.7956 12.0059 11.6523C12.0579 11.5091 12.1947 11.2552 12.416 10.8906C12.6439 10.526 12.9076 10.2038 13.207 9.92383C13.5065 9.64388 13.9395 9.38672 14.5059 9.15234C15.0723 8.91797 15.7038 8.80078 16.4004 8.80078C17.7741 8.80078 18.9004 9.21419 19.7793 10.041C20.6582 10.8678 21.0977 11.8867 21.0977 13.0977C21.0977 13.7357 20.9674 14.3281 20.707 14.875C20.4466 15.4219 20.1146 15.8809 19.7109 16.252C19.3138 16.6165 18.8548 16.9941 18.334 17.3848C17.8197 17.7689 17.3184 18.1204 16.8301 18.4395C16.3418 18.7585 15.86 19.1426 15.3848 19.5918C14.916 20.0345 14.5547 20.5033 14.3008 20.998H21.0977V23Z" fill="white"/>
</svg>
