<svg width="194" height="195" viewBox="0 0 194 195" fill="none" xmlns="http://www.w3.org/2000/svg">
<g filter="url(#filter0_d)">
<circle cx="92" cy="87" r="87" fill="#F3F3F3"/>
</g>
<g filter="url(#filter1_d)">
<circle cx="92" cy="87" r="60" fill="#F3F3F3" class="circe-hover"/>
</g>
<path d="M103.244 106H80.002C80.002 103.835 80.3275 101.874 80.9785 100.116C81.6296 98.3421 82.4759 96.8691 83.5176 95.6973C84.5755 94.5254 85.7311 93.4512 86.9844 92.4746C88.2539 91.498 89.5153 90.611 90.7686 89.8135C92.0218 88.9997 93.1693 88.2021 94.2109 87.4209C95.2689 86.6396 96.1234 85.7282 96.7744 84.6865C97.4255 83.6286 97.751 82.4811 97.751 81.2441C97.751 79.4701 97.1976 78.0703 96.0908 77.0449C95.0003 76.0195 93.4704 75.5068 91.501 75.5068C90.5407 75.5068 89.6374 75.6859 88.791 76.0439C87.9609 76.3857 87.3099 76.8008 86.8379 77.2891C86.3822 77.7611 85.9753 78.2412 85.6172 78.7295C85.2754 79.2178 85.0394 79.641 84.9092 79.999L84.7383 80.5117L80.2461 78.5098C80.3112 78.2819 80.4007 77.9889 80.5146 77.6309C80.6449 77.2728 80.9867 76.638 81.54 75.7266C82.1097 74.8151 82.7689 74.0094 83.5176 73.3096C84.2663 72.6097 85.3486 71.9668 86.7646 71.3809C88.1807 70.7949 89.7594 70.502 91.501 70.502C94.9352 70.502 97.751 71.5355 99.9482 73.6025C102.146 75.6696 103.244 78.2168 103.244 81.2441C103.244 82.8392 102.919 84.3203 102.268 85.6875C101.617 87.0547 100.786 88.2021 99.7773 89.1299C98.7845 90.0413 97.637 90.9854 96.335 91.9619C95.0492 92.9222 93.7959 93.8011 92.5752 94.5986C91.3545 95.3962 90.1501 96.3564 88.9619 97.4795C87.79 98.5863 86.8867 99.7581 86.252 100.995H103.244V106Z" fill="#3DBA20"/>
<defs>
<filter id="filter0_d" x="0" y="0" width="194" height="195" filterUnits="userSpaceOnUse" color-interpolation-filters="sRGB">
<feFlood flood-opacity="0" result="BackgroundImageFix"/>
<feColorMatrix in="SourceAlpha" type="matrix" values="0 0 0 0 0 0 0 0 0 0 0 0 0 0 0 0 0 0 127 0"/>
<feOffset dx="5" dy="11"/>
<feGaussianBlur stdDeviation="5"/>
<feColorMatrix type="matrix" values="0 0 0 0 0 0 0 0 0 0 0 0 0 0 0 0 0 0 0.15 0"/>
<feBlend mode="normal" in2="BackgroundImageFix" result="effect1_dropShadow"/>
<feBlend mode="normal" in="SourceGraphic" in2="effect1_dropShadow" result="shape"/>
</filter>
<filter id="filter1_d" x="27" y="27" width="140" height="141" filterUnits="userSpaceOnUse" color-interpolation-filters="sRGB">
<feFlood flood-opacity="0" result="BackgroundImageFix"/>
<feColorMatrix in="SourceAlpha" type="matrix" values="0 0 0 0 0 0 0 0 0 0 0 0 0 0 0 0 0 0 127 0"/>
<feOffset dx="5" dy="11"/>
<feGaussianBlur stdDeviation="5"/>
<feColorMatrix type="matrix" values="0 0 0 0 0 0 0 0 0 0 0 0 0 0 0 0 0 0 0.08 0"/>
<feBlend mode="normal" in2="BackgroundImageFix" result="effect1_dropShadow"/>
<feBlend mode="normal" in="SourceGraphic" in2="effect1_dropShadow" result="shape"/>
</filter>
</defs>
</svg>
