<svg width="194" height="195" viewBox="0 0 194 195" fill="none" xmlns="http://www.w3.org/2000/svg">
<g filter="url(#filter0_d)">
<circle cx="92" cy="87" r="87" fill="#F3F3F3"/>
</g>
<g filter="url(#filter1_d)">
<circle cx="92" cy="87" r="60" fill="white" class="circe-hover"/>
</g>
<path d="M97.751 87.4941C97.9137 87.5592 98.1335 87.6569 98.4102 87.7871C98.7031 87.901 99.2077 88.194 99.9238 88.666C100.64 89.1217 101.275 89.6507 101.828 90.2529C102.382 90.8551 102.878 91.6934 103.317 92.7676C103.773 93.8255 104.001 94.9893 104.001 96.2588C104.001 99.1234 102.854 101.549 100.559 103.534C98.2799 105.504 95.2607 106.488 91.501 106.488C89.9059 106.488 88.3923 106.301 86.96 105.927C85.5277 105.536 84.3395 105.08 83.3955 104.56C82.4678 104.022 81.6621 103.485 80.9785 102.948C80.2949 102.411 79.7985 101.964 79.4893 101.605L79.001 100.995L82.4922 97.5039C82.5573 97.6016 82.6712 97.748 82.834 97.9434C83.013 98.1224 83.3874 98.4479 83.957 98.9199C84.5267 99.3757 85.1208 99.7826 85.7393 100.141C86.374 100.482 87.2041 100.8 88.2295 101.093C89.2712 101.369 90.3617 101.508 91.501 101.508C93.6657 101.508 95.3747 100.987 96.6279 99.9453C97.8812 98.8874 98.5078 97.5771 98.5078 96.0146C98.5078 94.4359 97.8812 93.1257 96.6279 92.084C95.3747 91.026 93.6657 90.4971 91.501 90.4971H88.0098V85.4922H91.501C93.2262 85.4922 94.569 85.0446 95.5293 84.1494C96.5059 83.2542 96.9941 82.0417 96.9941 80.5117C96.9941 78.9655 96.5059 77.7448 95.5293 76.8496C94.569 75.9544 93.2262 75.5068 91.501 75.5068C90.0361 75.5068 88.6527 75.8242 87.3506 76.459C86.0485 77.0938 85.1289 77.7041 84.5918 78.29L83.7617 79.2422L80.2461 75.751C80.3438 75.6208 80.4902 75.4417 80.6855 75.2139C80.8971 74.9697 81.3529 74.5384 82.0527 73.9199C82.7526 73.3014 83.5013 72.7725 84.2988 72.333C85.0964 71.8773 86.1462 71.4622 87.4482 71.0879C88.7503 70.6973 90.1012 70.502 91.501 70.502C94.9352 70.502 97.6289 71.389 99.582 73.1631C101.535 74.9209 102.512 77.1995 102.512 79.999C102.512 80.9593 102.341 81.887 101.999 82.7822C101.674 83.6611 101.275 84.3773 100.803 84.9307C100.331 85.484 99.8669 85.9642 99.4111 86.3711C98.9717 86.7617 98.5811 87.0384 98.2393 87.2012L97.751 87.4941Z" fill="#3DBA20"/>
<defs>
<filter id="filter0_d" x="0" y="0" width="194" height="195" filterUnits="userSpaceOnUse" color-interpolation-filters="sRGB">
<feFlood flood-opacity="0" result="BackgroundImageFix"/>
<feColorMatrix in="SourceAlpha" type="matrix" values="0 0 0 0 0 0 0 0 0 0 0 0 0 0 0 0 0 0 127 0"/>
<feOffset dx="5" dy="11"/>
<feGaussianBlur stdDeviation="5"/>
<feColorMatrix type="matrix" values="0 0 0 0 0 0 0 0 0 0 0 0 0 0 0 0 0 0 0.15 0"/>
<feBlend mode="normal" in2="BackgroundImageFix" result="effect1_dropShadow"/>
<feBlend mode="normal" in="SourceGraphic" in2="effect1_dropShadow" result="shape"/>
</filter>
<filter id="filter1_d" x="27" y="27" width="140" height="141" filterUnits="userSpaceOnUse" color-interpolation-filters="sRGB">
<feFlood flood-opacity="0" result="BackgroundImageFix"/>
<feColorMatrix in="SourceAlpha" type="matrix" values="0 0 0 0 0 0 0 0 0 0 0 0 0 0 0 0 0 0 127 0"/>
<feOffset dx="5" dy="11"/>
<feGaussianBlur stdDeviation="5"/>
<feColorMatrix type="matrix" values="0 0 0 0 0 0 0 0 0 0 0 0 0 0 0 0 0 0 0.08 0"/>
<feBlend mode="normal" in2="BackgroundImageFix" result="effect1_dropShadow"/>
<feBlend mode="normal" in="SourceGraphic" in2="effect1_dropShadow" result="shape"/>
</filter>
</defs>
</svg>
