<svg width="34" height="34" viewBox="0 0 34 34" fill="none" xmlns="http://www.w3.org/2000/svg">
<circle cx="17" cy="17" r="16" stroke="white" stroke-width="2"/>
<path d="M18.9004 16.5977C18.9655 16.6237 19.0534 16.6628 19.1641 16.7148C19.2812 16.7604 19.4831 16.8776 19.7695 17.0664C20.056 17.2487 20.3099 17.4603 20.5312 17.7012C20.7526 17.9421 20.9512 18.2773 21.127 18.707C21.3092 19.1302 21.4004 19.5957 21.4004 20.1035C21.4004 21.2493 20.9414 22.2194 20.0234 23.0137C19.112 23.8014 17.9043 24.1953 16.4004 24.1953C15.7624 24.1953 15.1569 24.1204 14.584 23.9707C14.0111 23.8145 13.5358 23.6322 13.1582 23.4238C12.7871 23.209 12.4648 22.9941 12.1914 22.7793C11.918 22.5645 11.7194 22.3854 11.5957 22.2422L11.4004 21.998L12.7969 20.6016C12.8229 20.6406 12.8685 20.6992 12.9336 20.7773C13.0052 20.849 13.1549 20.9792 13.3828 21.168C13.6107 21.3503 13.8483 21.513 14.0957 21.6562C14.3496 21.793 14.6816 21.9199 15.0918 22.0371C15.5085 22.1478 15.9447 22.2031 16.4004 22.2031C17.2663 22.2031 17.9499 21.9948 18.4512 21.5781C18.9525 21.1549 19.2031 20.6309 19.2031 20.0059C19.2031 19.3743 18.9525 18.8503 18.4512 18.4336C17.9499 18.0104 17.2663 17.7988 16.4004 17.7988H15.0039V15.7969H16.4004C17.0905 15.7969 17.6276 15.6178 18.0117 15.2598C18.4023 14.9017 18.5977 14.4167 18.5977 13.8047C18.5977 13.1862 18.4023 12.6979 18.0117 12.3398C17.6276 11.9818 17.0905 11.8027 16.4004 11.8027C15.8145 11.8027 15.2611 11.9297 14.7402 12.1836C14.2194 12.4375 13.8516 12.6816 13.6367 12.916L13.3047 13.2969L11.8984 11.9004C11.9375 11.8483 11.9961 11.7767 12.0742 11.6855C12.1589 11.5879 12.3411 11.4154 12.6211 11.168C12.901 10.9206 13.2005 10.709 13.5195 10.5332C13.8385 10.3509 14.2585 10.1849 14.7793 10.0352C15.3001 9.87891 15.8405 9.80078 16.4004 9.80078C17.7741 9.80078 18.8516 10.1556 19.6328 10.8652C20.4141 11.5684 20.8047 12.4798 20.8047 13.5996C20.8047 13.9837 20.7363 14.3548 20.5996 14.7129C20.4694 15.0645 20.3099 15.3509 20.1211 15.5723C19.9323 15.7936 19.7467 15.9857 19.5645 16.1484C19.3887 16.3047 19.2324 16.4154 19.0957 16.4805L18.9004 16.5977Z" fill="white"/>
</svg>
