<svg width="27" height="27" viewBox="0 0 27 27" fill="none" xmlns="http://www.w3.org/2000/svg">
<g clip-path="url(#clip0)">
<path d="M26.3336 14.5231L25.1335 14.1417V10.5697C25.1335 10.002 24.6717 9.54024 24.1041 9.54024H21.4699C21.2515 9.54024 21.0744 9.71732 21.0744 9.93575C21.0744 10.1542 21.2515 10.3313 21.4699 10.3313H24.1041C24.2355 10.3313 24.3425 10.4382 24.3425 10.5697V11.128H21.4159C20.6155 11.128 19.9642 11.7793 19.9642 12.5797V13.3747C19.9642 14.1752 20.6155 14.8264 21.4159 14.8264H24.6767L26.094 15.277C26.1628 15.2988 26.209 15.3619 26.209 15.4341V16.0525H25.8297C25.6112 16.0525 25.4342 16.2295 25.4342 16.448C25.4342 16.6665 25.6112 16.8435 25.8297 16.8435H26.209V17.3512C26.209 17.4422 26.135 17.5161 26.0441 17.5161H24.6705C24.152 16.377 23.0132 15.6221 21.734 15.6221C20.4568 15.6221 19.3168 16.3752 18.7975 17.5161H17.6527C17.6527 15.6845 17.6527 14.1558 17.6527 12.3095C17.6527 11.2188 18.5401 10.3313 19.6309 10.3313H19.8886C20.1071 10.3313 20.2841 10.1542 20.2841 9.93581C20.2841 9.71738 20.1071 9.54029 19.8886 9.54029H19.6309C18.1039 9.54029 16.8617 10.7826 16.8617 12.3095V12.9973H15.9994C15.5539 12.9973 15.1915 13.3598 15.1915 13.8052V16.0525H12.5454V15.4112H13.1764C13.3087 15.4112 13.4323 15.3451 13.5056 15.235L17.7813 8.81618H18.2227C18.5402 8.81618 18.8422 8.69605 19.0731 8.47799L20.2562 7.36015L22.0457 6.81688C22.2124 6.7663 22.3263 6.61258 22.3263 6.43839V5.32325C22.3263 5.10482 22.1493 4.92773 21.9308 4.92773H19.717C19.3994 4.92773 19.0974 5.04787 18.8666 5.26593L17.7303 6.33967H12.4185C12.2 6.33967 12.023 6.51676 12.023 6.73519C12.023 6.95362 12.2 7.1307 12.4185 7.1307H17.8876C17.9887 7.1307 18.0859 7.09205 18.1593 7.0227L19.41 5.8409C19.4933 5.76217 19.6024 5.71882 19.7171 5.71882H21.5353V6.14518L19.9374 6.6303C19.8789 6.64807 19.8252 6.67924 19.7807 6.72127L18.5298 7.90301C18.4465 7.9818 18.3375 8.02515 18.2228 8.02515C17.7969 8.02515 4.94588 8.02515 3.69716 8.02515C3.5851 8.02515 3.47836 8.07266 3.40337 8.15588L1.56992 10.1904C1.39948 10.3795 1.11634 10.3837 0.938309 10.2233C0.755054 10.0582 0.740341 9.77486 0.90535 9.59165L2.98987 7.27842C3.07451 7.18449 3.19565 7.1306 3.32216 7.1306H10.8371C11.0555 7.1306 11.2326 6.95351 11.2326 6.73508C11.2326 6.51665 11.0555 6.33957 10.8371 6.33957H3.32216C2.97194 6.33957 2.63665 6.48876 2.4023 6.7489L0.317719 9.06214C-0.139233 9.56935 -0.0984161 10.3538 0.40874 10.8109C0.918428 11.2702 1.70165 11.2259 2.15755 10.7199L2.19985 10.673L2.7021 11.283V16.0524H2.48952C1.66078 16.0524 0.90651 16.5082 0.521014 17.2419L0.265827 17.7276C0.201385 17.8502 0.205814 17.9976 0.277482 18.1161C0.349097 18.2346 0.477507 18.3071 0.61599 18.3071H2.95918C2.92944 18.4828 2.91304 18.6631 2.91304 18.8472C2.91304 20.624 4.36084 22.0723 6.13823 22.0723C7.9151 22.0723 9.36337 20.6245 9.36337 18.8472C9.36337 18.6631 9.34702 18.4828 9.31723 18.3071H10.5223V18.8948C10.5223 19.37 10.9089 19.7566 11.384 19.7566H12.15C12.3684 19.7566 12.5455 19.5795 12.5455 19.361C12.5455 19.1426 12.3684 18.9655 12.15 18.9655H11.384C11.345 18.9655 11.3133 18.9338 11.3133 18.8948V18.3071H15.807V18.8948C15.807 18.9338 15.7753 18.9655 15.7363 18.9655H13.7312C13.5128 18.9655 13.3357 19.1426 13.3357 19.361C13.3357 19.5795 13.5128 19.7566 13.7312 19.7566H15.7363C16.2114 19.7566 16.598 19.37 16.598 18.8948V18.3071H18.5549C18.5251 18.4828 18.5088 18.6631 18.5088 18.8472C18.5088 20.6241 19.9566 22.0723 21.7339 22.0723C23.5108 22.0723 24.9591 20.6245 24.9591 18.8472C24.9591 18.6631 24.9427 18.4828 24.9129 18.3071H26.0439C26.571 18.3071 26.9999 17.8783 26.9999 17.3512V15.4341C27 15.0157 26.7321 14.6497 26.3336 14.5231ZM20.7553 13.3747V12.5797C20.7553 12.2154 21.0516 11.919 21.4159 11.919H24.3425V14.0354H21.4159C21.0516 14.0354 20.7553 13.739 20.7553 13.3747ZM15.9826 13.8051C15.9826 13.7957 15.9902 13.7882 15.9994 13.7882H16.8617V16.0524H15.9826V13.8051ZM11.7544 16.0524H7.74466C7.66439 16.0061 7.58207 15.963 7.49764 15.9236V15.4111H11.7544V16.0524ZM8.50415 19.2427H8.53964C8.47778 19.6194 8.32918 19.967 8.11507 20.2647L8.09086 20.2405C7.93635 20.0861 7.68596 20.0861 7.5315 20.2405C7.37704 20.395 7.37704 20.6454 7.5315 20.7999L7.55571 20.8241C7.25796 21.0382 6.91038 21.1869 6.53369 21.2487V21.2132C6.53369 20.9947 6.35666 20.8177 6.13818 20.8177C5.9197 20.8177 5.74266 20.9947 5.74266 21.2132V21.2487C5.36597 21.1869 5.01839 21.0382 4.72065 20.8241L4.74486 20.7999C4.89932 20.6454 4.89932 20.395 4.74486 20.2405C4.59034 20.0861 4.33995 20.0861 4.18549 20.2405L4.16129 20.2647C3.94718 19.967 3.79852 19.6193 3.73666 19.2427H3.7722C3.99069 19.2427 4.16772 19.0657 4.16772 18.8472C4.16772 18.6287 3.99069 18.4517 3.7722 18.4517H3.73666C3.79852 18.075 3.94713 17.7274 4.16129 17.4297L4.18549 17.4539C4.34006 17.6084 4.59039 17.6083 4.74486 17.4539C4.89932 17.2994 4.89932 17.049 4.74486 16.8946L4.72065 16.8704C5.01839 16.6562 5.36597 16.5076 5.74266 16.4458V16.4813C5.74266 16.6998 5.9197 16.8768 6.13818 16.8768C6.35666 16.8768 6.53369 16.6998 6.53369 16.4813V16.4458C6.91038 16.5076 7.25796 16.6562 7.55571 16.8704L7.5315 16.8946C7.37704 17.0491 7.37704 17.2995 7.5315 17.4539C7.60876 17.5311 7.71001 17.5697 7.81121 17.5697C7.91241 17.5697 8.01366 17.5311 8.09092 17.4539L8.11512 17.4297C8.32923 17.7275 8.47789 18.075 8.5397 18.4517H8.5042C8.28572 18.4517 8.10869 18.6288 8.10869 18.8472C8.10869 19.0657 8.28567 19.2427 8.50415 19.2427ZM9.39148 8.81602L6.13101 14.2027C5.63946 13.6058 5.14517 13.0055 4.64471 12.3978L6.79479 8.81607H9.39148V8.81602ZM12.9237 8.81602L9.43957 14.62C8.94402 14.62 7.35331 14.62 6.80307 14.62L10.3162 8.81602H12.9237ZM5.98266 15.267C6.05781 15.3582 6.16982 15.4111 6.288 15.4111H6.70661V15.6732C6.52193 15.6402 6.33219 15.622 6.13818 15.622C5.67664 15.622 5.23783 15.7201 4.84047 15.8955V13.8798L5.98266 15.267ZM12.9647 14.6201C12.4167 14.6201 10.9098 14.6201 10.3622 14.6201L13.8463 8.81607H16.8309L12.9647 14.6201ZM3.87319 8.81602H5.87218L4.11113 11.7496C3.59849 11.127 3.19549 10.6377 2.73532 10.0788L3.87319 8.81602ZM3.49308 12.2436L4.04943 12.9193V16.0524H3.49308V12.2436ZM1.27497 17.516C1.53575 17.0986 1.99175 16.8435 2.48942 16.8435H3.61373C3.45036 17.0489 3.31161 17.2745 3.20166 17.516H1.27497ZM9.07459 17.516C8.96464 17.2745 8.82594 17.0489 8.66257 16.8435H16.8617V17.516C15.9153 17.516 9.88861 17.516 9.07459 17.516V17.516ZM24.1 19.2427H24.1355C24.0736 19.6194 23.925 19.967 23.7109 20.2647L23.6867 20.2405C23.5322 20.0861 23.2818 20.0861 23.1273 20.2405C22.9728 20.395 22.9728 20.6454 23.1273 20.7999L23.1515 20.8241C22.8538 21.0382 22.5062 21.1869 22.1295 21.2487V21.2132C22.1295 20.9947 21.9525 20.8177 21.734 20.8177C21.5155 20.8177 21.3385 20.9947 21.3385 21.2132V21.2487C20.9618 21.1868 20.6142 21.0382 20.3165 20.8241L20.3407 20.7999C20.4951 20.6454 20.4951 20.395 20.3407 20.2405C20.1862 20.0861 19.9358 20.0861 19.7813 20.2405L19.7571 20.2647C19.543 19.967 19.3944 19.6194 19.3325 19.2427H19.368C19.5865 19.2427 19.7635 19.0657 19.7635 18.8472C19.7635 18.6287 19.5865 18.4517 19.368 18.4517H19.3325C19.3943 18.075 19.543 17.7274 19.7571 17.4297L19.7813 17.4539C19.8586 17.5311 19.9598 17.5697 20.061 17.5697C20.1622 17.5697 20.2635 17.5311 20.3407 17.4539C20.4952 17.2994 20.4952 17.049 20.3407 16.8945L20.3165 16.8703C20.6143 16.6562 20.9618 16.5075 21.3385 16.4457V16.4812C21.3385 16.6997 21.5156 16.8767 21.734 16.8767C21.9525 16.8767 22.1296 16.6997 22.1296 16.4812V16.4457C22.5062 16.5075 22.8538 16.6562 23.1516 16.8703L23.1274 16.8945C22.9729 17.049 22.9729 17.2994 23.1274 17.4539C23.2046 17.5311 23.3059 17.5697 23.4071 17.5697C23.5083 17.5697 23.6095 17.5311 23.6868 17.4539L23.711 17.4297C23.9251 17.7274 24.0738 18.075 24.1356 18.4517H24.1001C23.8816 18.4517 23.7046 18.6287 23.7046 18.8472C23.7046 19.0657 23.8815 19.2427 24.1 19.2427V19.2427Z" fill="#3DBA20"/>
<path d="M21.7327 17.5479C21.0164 17.5479 20.4336 18.1306 20.4336 18.847C20.4336 19.5633 21.0164 20.1461 21.7327 20.1461C22.4491 20.1461 23.0318 19.5633 23.0318 18.847C23.0318 18.1306 22.4491 17.5479 21.7327 17.5479ZM21.7327 19.3551C21.4526 19.3551 21.2246 19.1271 21.2246 18.847C21.2246 18.5668 21.4525 18.3389 21.7327 18.3389C22.0129 18.3389 22.2408 18.5668 22.2408 18.847C22.2408 19.1271 22.0129 19.3551 21.7327 19.3551Z" fill="#3DBA20"/>
<path d="M6.13901 17.5479C5.42266 17.5479 4.83984 18.1306 4.83984 18.847C4.83984 19.5633 5.42266 20.1461 6.13901 20.1461C6.85535 20.1461 7.43812 19.5633 7.43812 18.847C7.43812 18.1306 6.85535 17.5479 6.13901 17.5479ZM6.13901 19.3551C5.85883 19.3551 5.63086 19.1271 5.63086 18.847C5.63086 18.5668 5.85878 18.3389 6.13901 18.3389C6.41913 18.3389 6.6471 18.5668 6.6471 18.847C6.6471 19.1271 6.41913 19.3551 6.13901 19.3551Z" fill="#3DBA20"/>
</g>
<defs>
<clipPath id="clip0">
<rect width="27" height="27" fill="white"/>
</clipPath>
</defs>
</svg>
