<svg width="28" height="28" viewBox="0 0 28 28" fill="none" xmlns="http://www.w3.org/2000/svg">
<path d="M22.6867 14.4102H23.9061C24.097 15.3543 24.933 16.0675 25.9326 16.0675C27.0726 16.0675 28 15.14 28 14C28 12.86 27.0726 11.9325 25.9325 11.9325C24.933 11.9325 24.0969 12.6457 23.9061 13.5898H22.6867C22.5892 11.5006 21.7514 9.60165 20.4297 8.1503L22.6262 5.95388C23.0585 6.26872 23.5902 6.45515 24.1648 6.45515C25.6094 6.45515 26.7846 5.27986 26.7846 3.83523C26.7846 2.39061 25.6094 1.21538 24.1648 1.21538C22.7201 1.21538 21.5449 2.39066 21.5449 3.83523C21.5449 4.40984 21.7313 4.94145 22.0462 5.37381L19.8497 7.57023C18.3984 6.24865 16.4994 5.41078 14.4102 5.31333V4.09391C15.3543 3.9031 16.0675 3.06704 16.0675 2.06746C16.0675 0.927445 15.14 0 14 0C12.86 0 11.9325 0.927445 11.9325 2.06746C11.9325 3.06704 12.6457 3.9031 13.5898 4.09391V5.31327C11.5006 5.41078 9.60165 6.24859 8.1503 7.57017L5.95399 5.37392C6.26888 4.94151 6.45531 4.40984 6.45531 3.83523C6.45531 2.96286 6.02323 2.15048 5.29949 1.66212C5.11159 1.53546 4.85669 1.5849 4.73009 1.7727C4.60337 1.96049 4.65287 2.21539 4.84061 2.3421C5.33805 2.67772 5.63495 3.23591 5.63495 3.83523C5.63495 4.82759 4.82754 5.635 3.83518 5.635C2.84282 5.635 2.03547 4.82759 2.03547 3.83523C2.03547 3.03384 2.57332 2.32154 3.34343 2.10306C3.56136 2.04121 3.68791 1.81442 3.62605 1.59649C3.5642 1.37856 3.3373 1.25218 3.11954 1.31387C1.99823 1.63204 1.21516 2.66886 1.21516 3.83523C1.21516 5.27997 2.3905 6.45531 3.83523 6.45531C4.40989 6.45531 4.94156 6.26888 5.37392 5.95399L7.57023 8.15024C6.24859 9.60159 5.41078 11.5006 5.31327 13.5898H4.09391C3.9031 12.6456 3.06704 11.9325 2.06746 11.9325C0.927445 11.9325 0 12.86 0 14C0 15.14 0.927445 16.0675 2.06746 16.0675C3.06704 16.0675 3.9031 15.3543 4.09391 14.4102H5.31333C5.41084 16.4994 6.24865 18.3984 7.57028 19.8497L5.37381 22.0461C4.94145 21.7313 4.40984 21.5449 3.83523 21.5449C2.39061 21.5449 1.21538 22.7201 1.21538 24.1648C1.21538 25.6094 2.39061 26.7846 3.83523 26.7846C5.27986 26.7846 6.45509 25.6093 6.45509 24.1648C6.45509 23.5902 6.26872 23.0585 5.95383 22.6262L8.1503 20.4298C9.60165 21.7514 11.5006 22.5892 13.5898 22.6867V23.906C12.6457 24.0968 11.9325 24.9329 11.9325 25.9325C11.9325 27.0726 12.86 28 14 28C15.14 28 16.0675 27.0726 16.0675 25.9325C16.0675 24.933 15.3543 24.0969 14.4102 23.9061V22.6867C16.4994 22.5892 18.3984 21.7514 19.8497 20.4298L22.046 22.6261C21.7311 23.0585 21.5447 23.5902 21.5447 24.1648C21.5447 25.6094 22.72 26.7848 24.1648 26.7848C25.6095 26.7848 26.7848 25.6095 26.7848 24.1648C26.7848 23.8812 26.7397 23.6019 26.6506 23.3345C26.5789 23.1196 26.3465 23.0035 26.1318 23.0751C25.9169 23.1467 25.8007 23.379 25.8724 23.5939C25.9335 23.7774 25.9646 23.9695 25.9646 24.1647C25.9646 25.1571 25.1572 25.9645 24.1648 25.9645C23.1725 25.9645 22.3651 25.1571 22.3651 24.1647C22.3651 23.1723 23.1725 22.3649 24.1648 22.3649C24.3919 22.3649 24.6134 22.4067 24.8231 22.4891C25.0337 22.572 25.272 22.4683 25.3549 22.2574C25.4377 22.0466 25.334 21.8086 25.1232 21.7256C24.8175 21.6056 24.4951 21.5446 24.1649 21.5446C23.5902 21.5446 23.0585 21.7311 22.6262 22.046L20.4299 19.8497C21.7514 18.3984 22.5892 16.4994 22.6867 14.4102ZM25.9325 12.7529C26.6202 12.7529 27.1797 13.3123 27.1797 14C27.1797 14.6877 26.6202 15.2471 25.9325 15.2471C25.2448 15.2471 24.6854 14.6877 24.6854 14C24.6854 13.3123 25.2449 12.7529 25.9325 12.7529ZM24.1648 2.03569C25.1571 2.03569 25.9643 2.84298 25.9643 3.83523C25.9643 4.82754 25.157 5.63484 24.1648 5.63484C23.1725 5.63484 22.3652 4.82754 22.3652 3.83523C22.3652 2.84293 23.1725 2.03569 24.1648 2.03569ZM12.7529 2.06746C12.7529 1.37977 13.3124 0.820312 14 0.820312C14.6876 0.820312 15.2471 1.37977 15.2471 2.06746C15.2471 2.75516 14.6876 3.31461 14 3.31461C13.3124 3.31461 12.7529 2.7551 12.7529 2.06746ZM2.06746 15.2471C1.37977 15.2471 0.820312 14.6877 0.820312 14C0.820312 13.3123 1.37977 12.7529 2.06746 12.7529C2.75516 12.7529 3.31455 13.3123 3.31455 14C3.31455 14.6877 2.7551 15.2471 2.06746 15.2471ZM14 6.12369C18.343 6.12369 21.8763 9.65699 21.8763 14C21.8763 18.343 18.343 21.8763 14 21.8763C9.65699 21.8763 6.12369 18.3431 6.12369 14C6.12369 9.65694 9.65699 6.12369 14 6.12369ZM3.83523 25.9643C2.84293 25.9643 2.03569 25.157 2.03569 24.1648C2.03569 23.1725 2.84298 22.3652 3.83523 22.3652C4.82748 22.3652 5.63478 23.1725 5.63478 24.1648C5.63478 25.1571 4.82748 25.9643 3.83523 25.9643ZM15.2471 25.9325C15.2471 26.6202 14.6876 27.1797 14 27.1797C13.3124 27.1797 12.7529 26.6202 12.7529 25.9325C12.7529 25.2448 13.3124 24.6854 14 24.6854C14.6876 24.6854 15.2471 25.2449 15.2471 25.9325Z" fill="#3DBA20"/>
<path d="M9.35975 19.0504H11.676C11.6773 19.0504 11.6785 19.0506 11.6798 19.0506C11.681 19.0506 11.6822 19.0504 11.6835 19.0504H13.043C13.2695 19.0504 13.4531 18.8668 13.4531 18.6403C13.4531 18.4137 13.2695 18.2301 13.043 18.2301H12.0899V17.5356C12.0899 17.309 11.9063 17.1254 11.6798 17.1254C11.4532 17.1254 11.2696 17.309 11.2696 17.5356V18.2301H9.76991V16.2099C9.76991 15.2176 10.577 14.4102 11.5691 14.4102H16.4308C17.4229 14.4102 18.23 15.2176 18.23 16.2099V18.2301H16.7303V17.5356C16.7303 17.309 16.5467 17.1254 16.3201 17.1254C16.0935 17.1254 15.9099 17.309 15.9099 17.5356V18.2301H14.957C14.7304 18.2301 14.5469 18.4137 14.5469 18.6403C14.5469 18.8668 14.7304 19.0504 14.957 19.0504H16.3165C16.3178 19.0504 16.319 19.0506 16.3202 19.0506C16.3215 19.0506 16.3227 19.0504 16.3239 19.0504H18.6402C18.8668 19.0504 19.0504 18.8668 19.0504 18.6403V16.2099C19.0504 14.7652 17.8753 13.5899 16.4309 13.5899H16.1264C16.7683 13.009 17.1724 12.1697 17.1724 11.2379C17.1724 9.48863 15.7493 8.06555 14 8.06555C12.2508 8.06555 10.8277 9.48863 10.8277 11.2379C10.8277 12.1697 11.2318 13.009 11.8737 13.5899H11.5692C10.1248 13.5899 8.94971 14.7652 8.94971 16.2099V18.6403C8.9496 18.8668 9.13324 19.0504 9.35975 19.0504ZM11.648 11.2379C11.648 9.941 12.7031 8.88586 14 8.88586C15.2969 8.88586 16.352 9.94095 16.352 11.2379C16.352 12.5348 15.2969 13.5899 14 13.5899C12.7031 13.5899 11.648 12.5348 11.648 11.2379Z" fill="#3DBA20"/>
</svg>
