<svg width="27" height="27" viewBox="0 0 27 27" fill="none" xmlns="http://www.w3.org/2000/svg">
<path d="M16.8531 3.38771C16.8285 3.31417 16.7841 3.24884 16.7248 3.1989C16.6654 3.14896 16.5935 3.11634 16.5168 3.10463L14.6988 2.82661L13.8819 1.08638C13.8478 1.01384 13.7938 0.952504 13.7262 0.909537C13.6586 0.866569 13.5801 0.84375 13.5 0.84375C13.4198 0.84375 13.3414 0.866569 13.2737 0.909537C13.2061 0.952504 13.1521 1.01384 13.1181 1.08638L12.3012 2.82661L10.4831 3.10442C10.4064 3.1161 10.3344 3.14871 10.275 3.19867C10.2156 3.24863 10.1712 3.31401 10.1466 3.3876C10.1219 3.46119 10.1181 3.54015 10.1354 3.6158C10.1528 3.69144 10.1907 3.76083 10.2449 3.81633L11.5727 5.1773L11.2588 7.104C11.2461 7.1821 11.2556 7.26219 11.2863 7.33513C11.3169 7.40807 11.3675 7.47091 11.4321 7.51649C11.4968 7.56207 11.573 7.58854 11.652 7.59289C11.731 7.59723 11.8096 7.57928 11.8789 7.54107L13.5 6.64506L15.121 7.54107C15.1903 7.57936 15.269 7.59738 15.3481 7.59307C15.4271 7.58876 15.5034 7.56229 15.5681 7.51668C15.6328 7.47108 15.6834 7.40818 15.714 7.33519C15.7447 7.26219 15.7542 7.18204 15.7414 7.1039L15.4272 5.17714L16.7551 3.81617C16.8092 3.76067 16.847 3.69131 16.8643 3.61572C16.8816 3.54014 16.8777 3.46124 16.8531 3.38771ZM14.6746 4.7404C14.6285 4.78766 14.5941 4.84508 14.5742 4.90805C14.5543 4.97102 14.5495 5.03778 14.5601 5.10295L14.7689 6.38239L13.7041 5.79382C13.6416 5.75929 13.5714 5.74117 13.5 5.74117C13.4286 5.74117 13.3584 5.75929 13.2959 5.79382L12.2311 6.38239L12.44 5.10295C12.4506 5.03778 12.4458 4.97102 12.4259 4.90805C12.4061 4.84508 12.3717 4.78766 12.3256 4.7404L11.4222 3.8147L12.6509 3.62691C12.7194 3.61646 12.7843 3.5893 12.8398 3.54784C12.8953 3.50638 12.9397 3.45189 12.9691 3.38918L13.5 2.25856L14.0306 3.38918C14.0601 3.45189 14.1045 3.50638 14.16 3.54784C14.2155 3.5893 14.2804 3.61646 14.3488 3.62691L15.5775 3.8147L14.6746 4.7404Z" fill="white"/>
<path d="M8.0793 4.79213L6.26129 4.51411L5.44438 2.77388C5.41033 2.70134 5.35634 2.64 5.2887 2.59704C5.22107 2.55407 5.1426 2.53125 5.06248 2.53125C4.98235 2.53125 4.90388 2.55407 4.83625 2.59704C4.76861 2.64 4.71462 2.70134 4.68057 2.77388L3.86366 4.51411L2.04565 4.79213C1.96893 4.80381 1.89691 4.83642 1.83753 4.88638C1.77815 4.93635 1.73369 5.00172 1.70907 5.07531C1.68444 5.14891 1.68058 5.22787 1.69793 5.30351C1.71528 5.37915 1.75316 5.44854 1.80739 5.50404L3.13524 6.86501L2.82126 8.79151C2.80858 8.8696 2.81811 8.94969 2.84877 9.02263C2.87943 9.09557 2.92998 9.15841 2.99465 9.20399C3.05932 9.24957 3.13551 9.27604 3.21451 9.28039C3.29351 9.28474 3.37214 9.26678 3.44142 9.22857L5.06248 8.33256L6.68353 9.22857C6.75283 9.26686 6.8315 9.28488 6.91056 9.28057C6.98961 9.27626 7.06586 9.24979 7.13058 9.20418C7.1953 9.15858 7.24588 9.09568 7.27654 9.02269C7.3072 8.94969 7.3167 8.86954 7.30395 8.7914L6.98971 6.86464L8.31756 5.50367C8.3718 5.44817 8.40967 5.37878 8.42702 5.30314C8.44437 5.2275 8.44051 5.14854 8.41589 5.07494C8.39126 5.00135 8.34681 4.93598 8.28742 4.88601C8.22804 4.83605 8.15602 4.80344 8.0793 4.79176V4.79213ZM6.23708 6.4279C6.19096 6.47516 6.15659 6.53258 6.13671 6.59555C6.11683 6.65852 6.11202 6.72528 6.12265 6.79045L6.33137 8.06989L5.26656 7.48132C5.20408 7.44679 5.13386 7.42867 5.06248 7.42867C4.99109 7.42867 4.92087 7.44679 4.85839 7.48132L3.79358 8.06989L4.00251 6.79045C4.01314 6.72528 4.00833 6.65852 3.98845 6.59555C3.96858 6.53258 3.9342 6.47516 3.88808 6.4279L2.98474 5.5022L4.21345 5.31441C4.28193 5.30396 4.34678 5.2768 4.40228 5.23534C4.45777 5.19388 4.50221 5.13939 4.53165 5.07668L5.06248 3.94606L5.59314 5.07668C5.62259 5.13939 5.66702 5.19388 5.72251 5.23534C5.77801 5.2768 5.84286 5.30396 5.91134 5.31441L7.14005 5.5022L6.23708 6.4279Z" fill="white"/>
<path d="M25.2906 5.07521C25.266 5.00167 25.2216 4.93634 25.1623 4.8864C25.1029 4.83646 25.031 4.80384 24.9543 4.79213L23.1363 4.51411L22.3194 2.77388C22.2853 2.70134 22.2313 2.64 22.1637 2.59704C22.0961 2.55407 22.0176 2.53125 21.9375 2.53125C21.8573 2.53125 21.7789 2.55407 21.7112 2.59704C21.6436 2.64 21.5896 2.70134 21.5556 2.77388L20.7387 4.51411L18.9206 4.79192C18.8439 4.8036 18.7719 4.83621 18.7125 4.88617C18.6531 4.93613 18.6087 5.00151 18.5841 5.0751C18.5594 5.14869 18.5556 5.22765 18.5729 5.3033C18.5903 5.37894 18.6282 5.44833 18.6824 5.50383L20.0102 6.8648L19.6963 8.79151C19.6836 8.8696 19.6931 8.94969 19.7238 9.02263C19.7544 9.09557 19.805 9.15841 19.8696 9.20399C19.9343 9.24957 20.0105 9.27604 20.0895 9.28039C20.1685 9.28474 20.2471 9.26678 20.3164 9.22857L21.9375 8.33256L23.5585 9.22857C23.6278 9.26686 23.7065 9.28488 23.7856 9.28057C23.8646 9.27626 23.9409 9.24979 24.0056 9.20418C24.0703 9.15858 24.1209 9.09568 24.1515 9.02269C24.1822 8.94969 24.1917 8.86954 24.1789 8.7914L23.8647 6.86464L25.1926 5.50367C25.2467 5.44817 25.2845 5.37881 25.3018 5.30322C25.3191 5.22764 25.3152 5.14874 25.2906 5.07521ZM23.1121 6.4279C23.066 6.47516 23.0316 6.53258 23.0117 6.59555C22.9918 6.65852 22.987 6.72528 22.9976 6.79045L23.2064 8.06989L22.1416 7.48132C22.0791 7.44679 22.0089 7.42867 21.9375 7.42867C21.8661 7.42867 21.7959 7.44679 21.7334 7.48132L20.6686 8.06989L20.8773 6.79045C20.8879 6.72528 20.8831 6.65852 20.8632 6.59555C20.8434 6.53258 20.809 6.47516 20.7629 6.4279L19.8597 5.5022L21.0885 5.31441C21.1569 5.30396 21.2218 5.2768 21.2773 5.23534C21.3328 5.19388 21.3772 5.13939 21.4066 5.07668L21.9375 3.94606L22.4681 5.07668C22.4976 5.13939 22.542 5.19388 22.5975 5.23534C22.653 5.2768 22.7179 5.30396 22.7863 5.31441L24.015 5.5022L23.1121 6.4279Z" fill="white"/>
<path d="M6.32813 23.2031C6.32812 23.2639 6.34128 23.3241 6.36671 23.3793C6.39213 23.4346 6.42921 23.4838 6.47541 23.5234C6.60087 23.6308 9.59201 26.1562 13.5 26.1562C17.408 26.1562 20.3991 23.6308 20.5246 23.5234C20.5708 23.4838 20.6079 23.4346 20.6333 23.3793C20.6587 23.3241 20.6719 23.2639 20.6719 23.2031C20.6719 19.9378 18.4781 17.1755 15.4875 16.3116C16.1921 15.8787 16.7361 15.2276 17.0369 14.4573C17.3376 13.687 17.3787 12.8395 17.1537 12.0438C16.9288 11.248 16.4503 10.5474 15.7908 10.0485C15.1313 9.54952 14.327 9.27954 13.5 9.27954C12.673 9.27954 11.8687 9.54952 11.2092 10.0485C10.5497 10.5474 10.0712 11.248 9.84625 12.0438C9.62134 12.8395 9.66238 13.687 9.96314 14.4573C10.2639 15.2276 10.8079 15.8787 11.5125 16.3116C8.52187 17.1755 6.32813 19.9378 6.32813 23.2031ZM10.5469 13.0781C10.5469 12.494 10.7201 11.923 11.0446 11.4374C11.3691 10.9518 11.8303 10.5733 12.3699 10.3497C12.9095 10.1262 13.5033 10.0677 14.0761 10.1817C14.649 10.2956 15.1752 10.5769 15.5882 10.9899C16.0012 11.4029 16.2824 11.9291 16.3964 12.5019C16.5103 13.0748 16.4518 13.6686 16.2283 14.2082C16.0048 14.7478 15.6263 15.209 15.1407 15.5335C14.655 15.858 14.0841 16.0312 13.5 16.0312C12.7171 16.0303 11.9664 15.7189 11.4128 15.1653C10.8592 14.6116 10.5478 13.861 10.5469 13.0781ZM13.5 16.8749C15.143 16.8769 16.7211 17.517 17.9011 18.6603C19.0812 19.8036 19.771 21.3605 19.825 23.0027C19.1896 23.4931 16.6208 25.3124 13.5 25.3124C10.3792 25.3124 7.81044 23.4931 7.17499 23.0027C7.22899 21.3605 7.91879 19.8036 9.09886 18.6603C10.2789 17.517 11.857 16.8769 13.5 16.8749Z" fill="white"/>
</svg>
