<svg width="14" height="20" viewBox="0 0 14 20" fill="none" xmlns="http://www.w3.org/2000/svg">
<path d="M0.281206 14.2792C0.0987275 14.1078 -0.00224456 13.8781 3.78689e-05 13.6398C0.00232029 13.4014 0.107674 13.1734 0.293409 13.0048C0.479143 12.8363 0.730396 12.7407 0.993054 12.7386C1.25571 12.7365 1.50876 12.8282 1.69769 12.9938L5.99824 16.8965V0.9091C5.99824 0.667992 6.10378 0.436758 6.29165 0.266269C6.47952 0.0957798 6.73432 0 7 0C7.26568 0 7.52048 0.0957798 7.70835 0.266269C7.89622 0.436758 8.00176 0.667992 8.00176 0.9091V16.8965L12.3023 12.9938C12.4912 12.8282 12.7443 12.7365 13.0069 12.7386C13.2696 12.7407 13.5209 12.8363 13.7066 13.0048C13.8923 13.1734 13.9977 13.4014 14 13.6398C14.0022 13.8781 13.9013 14.1078 13.7188 14.2792L7.70824 19.7338C7.52039 19.9043 7.26563 20 7 20C6.73437 20 6.47961 19.9043 6.29176 19.7338L0.281206 14.2792Z" fill="white"/>
</svg>
