<svg width="26" height="20" viewBox="0 0 26 20" fill="none" xmlns="http://www.w3.org/2000/svg">
<path d="M24.0556 15.276L22.7828 14.7653V14.4402C23.0327 14.3014 23.257 14.1207 23.4458 13.9074C24.2509 14.0024 25.0213 13.681 25.52 13.0344C26.0357 12.3658 26.143 11.5041 25.8071 10.7293L25.2355 9.4114C25.1925 9.31236 25.163 9.20789 25.1476 9.10105C25.0244 8.24496 24.5966 7.46156 23.9429 6.8952C23.2892 6.32879 22.4529 6.01692 21.588 6.01692C20.7231 6.01692 19.8867 6.32879 19.233 6.8952C18.5794 7.46156 18.1515 8.24491 18.0283 9.10105C18.0129 9.20794 17.9834 9.31241 17.9404 9.4114L17.3689 10.7293C17.0329 11.504 17.1402 12.3657 17.656 13.0344C18.0971 13.6064 18.7508 13.9252 19.453 13.9251C19.5436 13.9251 19.6351 13.9197 19.727 13.9089C19.8983 14.1032 20.0993 14.2705 20.323 14.4037V14.7653L19.0502 15.276C18.9672 15.3093 18.8862 15.347 18.8073 15.3886C18.561 14.9356 18.2094 14.5395 17.7719 14.2386L16.114 13.0984C16.1236 12.8891 16.0398 12.6781 15.8693 12.5334L15.1956 11.9618C15.1317 11.9076 15.06 11.8666 14.9842 11.8388V11.0692C15.6962 10.5527 16.2012 9.76797 16.3492 8.86424H16.3897C17.1145 8.86424 17.7042 8.27456 17.7042 7.54981C17.7042 7.24037 17.5964 6.95572 17.4169 6.73093L17.6886 4.79924C17.8844 3.4067 16.9122 2.10554 15.5213 1.89864L15.4672 1.89063C15.0224 1.16471 14.3335 0.640975 13.507 0.406604L13.4075 0.378372C12.3117 0.0676682 11.1395 0.253128 10.1916 0.887308C10.0171 1.00404 9.97026 1.24013 10.087 1.41459C10.2037 1.58905 10.4398 1.63594 10.6143 1.51916C11.3767 1.00916 12.3191 0.859989 13.2001 1.10982L13.2996 1.13805C13.9912 1.33415 14.5589 1.79119 14.8982 2.42496C15.1316 2.86101 15.2347 3.34055 15.2049 3.82024L14.9473 3.59875C14.7117 3.39631 14.3654 3.39093 14.1238 3.58607L13.7858 3.85912H11.8562C10.6041 3.85912 9.58545 4.8778 9.58545 6.12989V6.23547C9.48464 6.23583 9.38661 6.24789 9.29234 6.26984C8.86257 5.05997 8.98376 3.69682 9.6297 2.58179C9.73493 2.40008 9.67299 2.16753 9.49133 2.06226C9.30967 1.95708 9.07713 2.01897 8.97185 2.20063C8.19068 3.54918 8.06402 5.20716 8.62562 6.65819C8.40873 6.89266 8.27588 7.20595 8.27588 7.54981C8.27588 8.27456 8.86556 8.86424 9.59037 8.86424H9.63092C9.77892 9.76797 10.2839 10.5527 10.9959 11.0692V11.8388C10.9201 11.8666 10.8483 11.9076 10.7845 11.9618L10.1108 12.5334C9.94025 12.6781 9.85652 12.8891 9.8661 13.0984L8.20822 14.2386C7.87131 14.4703 7.58524 14.7584 7.35898 15.0855C7.21234 15.0045 7.05953 14.9352 6.90128 14.8792L5.77565 14.4805V14.1809C6.34901 13.8266 6.76119 13.2361 6.87599 12.5462H7.04609C7.71307 12.5462 8.25566 12.0036 8.25566 11.3367C8.25566 11.0372 8.14608 10.7631 7.96518 10.5517L8.03305 9.74825C8.12737 8.5913 7.62254 7.49385 6.68258 6.81278C5.74261 6.13162 4.54252 5.9936 3.47244 6.44349L2.71474 6.76205C1.54151 7.02105 0.757353 8.14526 0.924869 9.33942L1.09436 10.5478C0.911488 10.7597 0.800537 11.0354 0.800537 11.3367C0.800537 12.0036 1.34313 12.5462 2.0101 12.5462H2.18021C2.28756 13.1914 2.65508 13.7494 3.17116 14.1088V14.4805L2.04553 14.8791C1.8879 14.935 1.7326 15.0049 1.58399 15.0871C1.40025 15.1887 1.33365 15.42 1.43522 15.6037C1.50456 15.7292 1.63437 15.8 1.76823 15.8C1.83042 15.8 1.89353 15.7847 1.95181 15.7524C2.06398 15.6904 2.18091 15.6377 2.29927 15.5958L3.27193 15.2513C3.46889 15.7207 3.93317 16.0513 4.47333 16.0513C5.01349 16.0513 5.47777 15.7207 5.67474 15.2513L6.6474 15.5958C6.76975 15.6391 6.88785 15.693 7.00103 15.7562C6.85004 16.139 6.7691 16.5515 6.7691 16.9748V19.23C6.7691 19.44 6.9393 19.6101 7.14924 19.6101C7.35918 19.6101 7.52938 19.44 7.52938 19.23V16.9748C7.52938 16.1316 7.9442 15.3429 8.63895 14.8651L10.2222 13.7763L10.8711 14.6439C11.0106 14.8304 11.2293 14.9355 11.4549 14.9355C11.5251 14.9355 11.5961 14.9253 11.6655 14.9042L12.6098 14.6168V19.3892C12.6098 19.5991 12.78 19.7693 12.99 19.7693C13.1999 19.7693 13.3701 19.5991 13.3701 19.3892V14.6168L14.3145 14.9042C14.3839 14.9253 14.4548 14.9355 14.525 14.9355C14.7506 14.9355 14.9694 14.8304 15.1088 14.6439L15.7577 13.7763L17.3409 14.8651C18.0357 15.3429 18.4505 16.1316 18.4505 16.9748V19.23C18.4505 19.44 18.6207 19.6101 18.8306 19.6101C19.0406 19.6101 19.2108 19.44 19.2108 19.23V16.9748C19.2108 16.6754 19.1702 16.3814 19.0931 16.0993C19.1702 16.0544 19.2503 16.0149 19.3332 15.9817L20.437 15.5388C20.6325 15.9597 21.059 16.2524 21.5529 16.2524C22.0467 16.2524 22.4732 15.9597 22.6688 15.5389L23.7726 15.9817C24.4706 16.2617 24.9216 16.9286 24.9216 17.6806V18.324C24.9216 18.534 25.0918 18.7042 25.3017 18.7042C25.5116 18.7042 25.6818 18.534 25.6818 18.324V17.6806C25.6818 16.6162 25.0435 15.6724 24.0556 15.276ZM9.03602 7.54976C9.03602 7.24584 9.282 6.9985 9.5853 6.99581V8.1036C9.28205 8.10096 9.03602 7.85367 9.03602 7.54976ZM7.04599 11.7859H6.90874V10.8873H7.04599C7.29375 10.8873 7.49527 11.0889 7.49527 11.3366C7.49527 11.5843 7.29375 11.7859 7.04599 11.7859ZM1.56072 11.3366C1.56072 11.0889 1.76225 10.8874 2.01 10.8874H2.14726V11.7859H2.01C1.7623 11.7859 1.56072 11.5843 1.56072 11.3366ZM2.60896 8.95527C2.35679 9.30349 2.20433 9.70446 2.16069 10.127H2.01C1.94026 10.127 1.87204 10.1333 1.80548 10.1447L1.67771 9.23369C1.56407 8.42373 2.10296 7.66172 2.90451 7.49887C2.92904 7.4939 2.95306 7.4865 2.97618 7.47677L3.76708 7.14422C4.59032 6.79809 5.51341 6.90437 6.23644 7.42826C6.95947 7.95225 7.34783 8.79637 7.27535 9.6852L7.23672 10.1421C7.17458 10.1322 7.11092 10.127 7.04599 10.127H6.90539C6.87265 9.80467 6.5997 9.55225 6.26888 9.55225H5.33018C4.66117 9.55225 3.99917 9.32959 3.46616 8.92537L3.3586 8.84382C3.24567 8.75816 3.10041 8.72095 2.96036 8.74184C2.82016 8.76272 2.69208 8.84052 2.60896 8.95527ZM3.22474 9.40121C3.22464 9.40136 3.22459 9.40146 3.22454 9.40156C3.22459 9.40146 3.22469 9.40136 3.22474 9.40121ZM2.9076 10.3801C2.9076 10.1051 2.97384 9.83944 3.10071 9.6002C3.74812 10.0604 4.53522 10.3126 5.33023 10.3126H6.14845V12.1543C6.14845 13.0478 5.42151 13.7747 4.52802 13.7747C3.63453 13.7747 2.9076 13.0478 2.9076 12.1543V10.3801ZM4.47328 15.291C4.17444 15.291 3.93135 15.0479 3.93135 14.7491V14.4592C4.12208 14.5087 4.32204 14.535 4.52802 14.535C4.69498 14.535 4.85789 14.5176 5.01527 14.4847V14.7491C5.01527 15.0479 4.77213 15.291 4.47328 15.291ZM16.3945 8.1036V6.99581C16.6978 6.99845 16.9438 7.24584 16.9438 7.54976C16.9438 7.85367 16.6978 8.10096 16.3945 8.1036ZM16.9356 4.69321L16.7129 6.27562C16.611 6.24972 16.5043 6.23578 16.3944 6.23537V6.20461C16.3944 5.59171 16.2049 5.00219 15.8616 4.50957C16.0112 3.93307 16.006 3.33954 15.851 2.77541C16.5853 3.0888 17.0516 3.86819 16.9356 4.69321ZM10.3456 8.31222V6.12979C10.3456 5.29687 11.0233 4.6193 11.8561 4.6193H13.9201C14.007 4.6193 14.0913 4.5895 14.1589 4.53491L14.5255 4.23876L14.8661 4.53147C15.3542 4.95104 15.6341 5.56095 15.6341 6.20461V8.31217C15.6341 9.77025 14.4479 10.9565 12.9899 10.9565C11.5318 10.9565 10.3456 9.77025 10.3456 8.31222ZM12.9899 11.7168C13.4251 11.7168 13.8409 11.6339 14.2238 11.4844V11.9715L12.9899 12.5765L11.7561 11.9715V11.4844C12.1389 11.6338 12.5548 11.7168 12.9899 11.7168ZM11.4661 14.17L10.6472 13.0752L11.2452 12.5678L12.6097 13.2368V13.822L11.4661 14.17ZM14.5137 14.17L13.3701 13.822V13.2369L14.7346 12.5678L15.3326 13.0752L14.5137 14.17ZM18.2579 12.5701C17.9137 12.1238 17.8421 11.5489 18.0664 11.0319L18.6379 9.71394C18.7077 9.55296 18.7558 9.38321 18.7808 9.20936C18.9804 7.82285 20.1872 6.77725 21.588 6.77725C22.9888 6.77725 24.1955 7.82285 24.395 9.20936C24.42 9.38316 24.4681 9.55291 24.538 9.71394L25.1095 11.0319C25.3337 11.5488 25.2621 12.1238 24.918 12.5701C24.6631 12.9005 24.302 13.1039 23.9056 13.1527C23.9875 12.94 24.0408 12.7133 24.0605 12.477C24.0778 12.2677 23.9222 12.0841 23.713 12.0667C23.504 12.0497 23.3201 12.205 23.3028 12.4142C23.2295 13.2985 22.4763 13.9912 21.588 13.9912C20.6388 13.9912 19.8666 13.2191 19.8666 12.2699V10.4462C19.8666 10.0419 19.9856 9.64419 20.2048 9.30663C20.6967 9.68211 21.3031 9.89686 21.9225 9.91324L23.3093 9.94983V10.8255C23.3093 11.0355 23.4795 11.2056 23.6894 11.2056C23.8994 11.2056 24.0696 11.0355 24.0696 10.8255V9.84689C24.0696 9.48935 23.7896 9.20191 23.4322 9.19253L21.9425 9.1533C21.4601 9.14053 20.9884 8.96582 20.6142 8.66145L20.516 8.58152C20.4001 8.48729 20.2546 8.44411 20.106 8.46007C19.9575 8.47594 19.8244 8.54893 19.7312 8.66545C19.3282 9.16897 19.1062 9.80142 19.1062 10.4464V12.27C19.1062 12.5806 19.164 12.8777 19.2687 13.152C18.873 13.1028 18.5124 12.9001 18.2579 12.5701ZM21.5528 15.4921C21.2939 15.4921 21.0832 15.2814 21.0832 15.0224V14.6998C21.2462 14.7336 21.415 14.7516 21.5879 14.7516C21.7358 14.7516 21.8809 14.7377 22.0224 14.7121V15.0225C22.0225 15.2814 21.8118 15.4921 21.5528 15.4921Z" fill="white"/>
</svg>
